<svg width="40" height="28" viewBox="0 0 40 28" fill="none" xmlns="http://www.w3.org/2000/svg" xmlns:xlink="http://www.w3.org/1999/xlink">
<path d="M-0.321,18.5C-0.731,19.526 -0.232,20.69 0.793,21.1L17.506,27.785C18.532,28.195 19.695,27.697 20.106,26.671C20.516,25.645 20.017,24.481 18.992,24.071L4.136,18.129L10.078,3.273C10.488,2.248 9.99,1.084 8.964,0.674C7.938,0.263 6.774,0.762 6.364,1.788L-0.321,18.5ZM37.252,6.112C38.267,5.677 38.737,4.502 38.302,3.486C37.867,2.471 36.691,2.001 35.676,2.436L37.252,6.112ZM2.324,21.081L37.252,6.112L35.676,2.436L0.748,17.405L2.324,21.081Z" transform="rotate(46.397 19 11.759)" fill="#565656"/>
</svg>
