<svg width="50" height="24" viewBox="0 0 50 24" fill="none" xmlns="http://www.w3.org/2000/svg" xmlns:xlink="http://www.w3.org/1999/xlink">
<g opacity="0.35" style="isolation:isolate">
<path d="M0.094,6.117C0.094,3.172 2.482,0.784 5.427,0.784L38.761,0.784C41.706,0.784 44.094,3.172 44.094,6.117L44.094,18.117C44.094,21.063 41.706,23.45 38.761,23.45L5.427,23.45C2.482,23.45 0.094,21.063 0.094,18.117L0.094,6.117Z" clip-rule="evenodd" fill-rule="evenodd" transform="rotate(-0.241 22.094 12.117)" stroke="#000000" stroke-width="1" stroke-miterlimit="3.999327"/>
</g>
<g opacity="0.4" style="isolation:isolate">
<path d="M46.094,8.064L46.094,16.064C47.704,15.386 48.75,13.81 48.75,12.064C48.75,10.317 47.704,8.741 46.094,8.064Z" transform="rotate(-0.241 47.422 12.064)" fill="#000000"/>
</g>
<path d="M4.094,7.451C4.094,5.978 5.287,4.784 6.76,4.784L37.427,4.784C38.9,4.784 40.094,5.978 40.094,7.451L40.094,16.784C40.094,18.257 38.9,19.451 37.427,19.451L6.76,19.451C5.287,19.451 4.094,18.257 4.094,16.784L4.094,7.451Z" transform="rotate(-0.241 22.094 12.118)" fill="#000000"/>
</svg>
