<svg width="50" height="24" viewBox="0 0 50 24" fill="none" xmlns="http://www.w3.org/2000/svg" xmlns:xlink="http://www.w3.org/1999/xlink">
<g opacity="0.35" style="isolation:isolate">
<path d="M0.096,6.119C0.096,3.173 2.484,0.786 5.429,0.786L38.763,0.786C41.708,0.786 44.096,3.173 44.096,6.119L44.096,18.119C44.096,21.064 41.708,23.452 38.763,23.452L5.429,23.452C2.484,23.452 0.096,21.064 0.096,18.119L0.096,6.119Z" clip-rule="evenodd" fill-rule="evenodd" transform="rotate(-0.241 22.096 12.119)" stroke="#000000" stroke-width="1" stroke-miterlimit="3.999327"/>
</g>
<g opacity="0.4" style="isolation:isolate">
<path d="M46.096,8.066L46.096,16.066C47.706,15.388 48.752,13.812 48.752,12.066C48.752,10.319 47.706,8.743 46.096,8.066Z" transform="rotate(-0.241 47.424 12.066)" fill="#000000"/>
</g>
<path d="M4.096,7.453C4.096,5.98 5.29,4.786 6.763,4.786L37.43,4.786C38.902,4.786 40.096,5.98 40.096,7.453L40.096,16.786C40.096,18.259 38.902,19.453 37.43,19.453L6.763,19.453C5.29,19.453 4.096,18.259 4.096,16.786L4.096,7.453Z" transform="rotate(-0.241 22.096 12.12)" fill="#000000"/>
</svg>
