<svg width="50" height="24" viewBox="0 0 50 24" fill="none" xmlns="http://www.w3.org/2000/svg" xmlns:xlink="http://www.w3.org/1999/xlink">
<g opacity="0.35" style="isolation:isolate">
<path d="M0.096,6.117C0.096,3.172 2.484,0.784 5.429,0.784L38.763,0.784C41.708,0.784 44.096,3.172 44.096,6.117L44.096,18.117C44.096,21.063 41.708,23.45 38.763,23.45L5.429,23.45C2.484,23.45 0.096,21.063 0.096,18.117L0.096,6.117Z" clip-rule="evenodd" fill-rule="evenodd" transform="rotate(-0.241 22.096 12.117)" stroke="#000000" stroke-width="1" stroke-miterlimit="3.999327"/>
</g>
<g opacity="0.4" style="isolation:isolate">
<path d="M46.096,8.064L46.096,16.064C47.706,15.386 48.752,13.81 48.752,12.064C48.752,10.317 47.706,8.741 46.096,8.064Z" transform="rotate(-0.241 47.424 12.064)" fill="#000000"/>
</g>
<path d="M4.096,7.451C4.096,5.978 5.29,4.784 6.763,4.784L37.43,4.784C38.902,4.784 40.096,5.978 40.096,7.451L40.096,16.784C40.096,18.257 38.902,19.451 37.43,19.451L6.763,19.451C5.29,19.451 4.096,18.257 4.096,16.784L4.096,7.451Z" transform="rotate(-0.241 22.096 12.118)" fill="#000000"/>
</svg>
