<svg width="698" height="258" viewBox="0 0 698 258" fill="none" xmlns="http://www.w3.org/2000/svg" xmlns:xlink="http://www.w3.org/1999/xlink">
<rect  x="67.141" y="210.906" width="617.695" height="1.746" fill="#000000"/>
<rect  x="66.229" y="211.779" width="1.825" height="7.699" fill="#000000"/>
<path d="M67.141,251.569C65.969,251.569 64.971,251.264 64.146,250.654C63.322,250.039 62.692,249.148 62.256,247.983C61.82,246.812 61.603,245.399 61.603,243.742C61.603,242.096 61.82,240.69 62.256,239.524C62.697,238.354 63.329,237.461 64.154,236.846C64.984,236.226 65.979,235.916 67.141,235.916C68.303,235.916 69.296,236.226 70.12,236.846C70.95,237.461 71.583,238.354 72.018,239.524C72.459,240.69 72.679,242.096 72.679,243.742C72.679,245.399 72.462,246.812 72.026,247.983C71.59,249.148 70.96,250.039 70.136,250.654C69.311,251.264 68.313,251.569 67.141,251.569ZM67.141,249.932C68.303,249.932 69.205,249.396 69.848,248.325C70.491,247.254 70.812,245.726 70.812,243.742C70.812,242.423 70.665,241.3 70.369,240.372C70.079,239.445 69.659,238.738 69.109,238.252C68.564,237.766 67.908,237.523 67.141,237.523C65.99,237.523 65.09,238.066 64.442,239.152C63.794,240.233 63.469,241.763 63.469,243.742C63.469,245.062 63.615,246.183 63.905,247.105C64.195,248.028 64.613,248.729 65.157,249.21C65.707,249.692 66.368,249.932 67.141,249.932Z" fill="#000000"/>
<rect  x="134.861" y="211.779" width="1.825" height="7.699" fill="#000000"/>
<path d="M137.932,236.124L137.932,251.36L136.003,251.36L136.003,238.058L135.91,238.058L132.021,240.528L132.021,238.653L136.003,236.124L137.932,236.124Z" fill="#000000"/>
<rect  x="203.493" y="211.779" width="1.825" height="7.699" fill="#000000"/>
<path d="M199.424,251.36L199.424,250.021L204.682,244.516C205.299,243.871 205.808,243.311 206.207,242.835C206.606,242.354 206.902,241.902 207.094,241.481C207.291,241.054 207.389,240.608 207.389,240.142C207.389,239.606 207.254,239.142 206.985,238.75C206.72,238.359 206.357,238.056 205.896,237.843C205.434,237.63 204.916,237.523 204.34,237.523C203.728,237.523 203.194,237.644 202.738,237.887C202.286,238.126 201.936,238.46 201.687,238.892C201.444,239.323 201.322,239.829 201.322,240.409L199.486,240.409C199.486,239.517 199.701,238.733 200.132,238.059C200.562,237.384 201.148,236.858 201.89,236.481C202.636,236.104 203.474,235.916 204.402,235.916C205.336,235.916 206.163,236.104 206.884,236.481C207.604,236.858 208.17,237.367 208.579,238.007C208.989,238.646 209.194,239.358 209.194,240.142C209.194,240.702 209.088,241.25 208.875,241.786C208.667,242.316 208.304,242.909 207.786,243.564C207.273,244.214 206.559,245.007 205.647,245.944L202.069,249.605L202.069,249.724L209.474,249.724L209.474,251.36L199.424,251.36Z" fill="#000000"/>
<rect  x="272.127" y="211.779" width="1.825" height="7.699" fill="#000000"/>
<path d="M273.098,251.569C272.071,251.569 271.155,251.4 270.352,251.063C269.553,250.726 268.918,250.257 268.446,249.657C267.979,249.052 267.725,248.35 267.684,247.551L269.644,247.551C269.685,248.042 269.862,248.466 270.173,248.824C270.484,249.176 270.891,249.449 271.394,249.642C271.897,249.835 272.455,249.932 273.066,249.932C273.751,249.932 274.358,249.818 274.887,249.59C275.416,249.362 275.83,249.044 276.131,248.638C276.432,248.231 276.582,247.76 276.582,247.224C276.582,246.664 276.437,246.17 276.147,245.744C275.856,245.312 275.431,244.975 274.871,244.732C274.311,244.489 273.627,244.367 272.818,244.367L271.542,244.367L271.542,242.731L272.818,242.731C273.45,242.731 274.005,242.622 274.482,242.403C274.964,242.185 275.34,241.878 275.61,241.481C275.885,241.084 276.022,240.618 276.022,240.082C276.022,239.566 275.903,239.117 275.665,238.736C275.426,238.354 275.089,238.056 274.653,237.843C274.223,237.63 273.715,237.523 273.129,237.523C272.579,237.523 272.06,237.62 271.573,237.813C271.091,238.002 270.697,238.277 270.391,238.639C270.085,238.996 269.919,239.427 269.893,239.933L268.026,239.933C268.057,239.135 268.308,238.436 268.78,237.835C269.252,237.23 269.869,236.759 270.632,236.422C271.399,236.085 272.242,235.916 273.16,235.916C274.145,235.916 274.99,236.107 275.696,236.489C276.401,236.866 276.943,237.364 277.321,237.984C277.7,238.604 277.889,239.274 277.889,239.993C277.889,240.851 277.653,241.582 277.181,242.188C276.715,242.793 276.079,243.212 275.276,243.445L275.276,243.564C276.282,243.723 277.067,244.132 277.633,244.791C278.198,245.446 278.48,246.257 278.48,247.224C278.48,248.052 278.244,248.796 277.773,249.456C277.306,250.111 276.668,250.626 275.859,251.003C275.05,251.38 274.13,251.569 273.098,251.569Z" fill="#000000"/>
<rect  x="340.76" y="211.779" width="1.825" height="7.699" fill="#000000"/>
<path d="M335.921,248.236L335.921,246.718L342.922,236.124L344.073,236.124L344.073,238.475L343.295,238.475L338.006,246.48L338.006,246.599L347.433,246.599L347.433,248.236L335.921,248.236ZM343.42,251.36L343.42,247.774L343.42,247.068L343.42,236.124L345.255,236.124L345.255,251.36L343.42,251.36Z" fill="#000000"/>
<rect  x="409.392" y="211.779" width="1.825" height="7.699" fill="#000000"/>
<path d="M410.269,251.568C409.356,251.568 408.534,251.395 407.803,251.048C407.071,250.701 406.485,250.224 406.045,249.619C405.604,249.014 405.363,248.325 405.321,247.551L407.188,247.551C407.261,248.241 407.587,248.811 408.168,249.262C408.754,249.709 409.454,249.932 410.269,249.932C410.922,249.932 411.503,249.785 412.011,249.493C412.524,249.2 412.926,248.798 413.217,248.288C413.512,247.772 413.66,247.189 413.66,246.539C413.66,245.875 413.507,245.282 413.201,244.761C412.9,244.236 412.485,243.821 411.957,243.519C411.428,243.216 410.823,243.063 410.144,243.058C409.657,243.053 409.156,243.125 408.643,243.273C408.129,243.417 407.707,243.603 407.375,243.831L405.57,243.623L406.535,236.124L414.811,236.124L414.811,237.761L408.153,237.761L407.593,242.254L407.686,242.254C408.013,242.006 408.422,241.8 408.915,241.637C409.408,241.473 409.921,241.391 410.455,241.391C411.43,241.391 412.299,241.614 413.061,242.061C413.829,242.502 414.43,243.107 414.866,243.876C415.307,244.645 415.527,245.523 415.527,246.51C415.527,247.482 415.299,248.35 414.842,249.113C414.391,249.872 413.769,250.472 412.976,250.914C412.182,251.35 411.28,251.568 410.269,251.568Z" fill="#000000"/>
<rect  x="478.024" y="211.779" width="1.825" height="7.699" fill="#000000"/>
<path d="M479.041,251.569C478.388,251.559 477.735,251.44 477.081,251.212C476.428,250.984 475.831,250.599 475.292,250.059C474.753,249.513 474.32,248.776 473.993,247.849C473.666,246.917 473.503,245.746 473.503,244.338C473.503,242.989 473.635,241.793 473.9,240.752C474.164,239.705 474.548,238.825 475.051,238.111C475.554,237.392 476.161,236.846 476.871,236.474C477.587,236.102 478.393,235.916 479.29,235.916C480.182,235.916 480.976,236.087 481.671,236.429C482.371,236.767 482.941,237.238 483.382,237.843C483.823,238.448 484.108,239.145 484.238,239.933L482.34,239.933C482.163,239.249 481.821,238.681 481.313,238.23C480.805,237.778 480.13,237.553 479.29,237.553C478.056,237.553 477.084,238.066 476.373,239.093C475.668,240.119 475.313,241.56 475.308,243.415L475.432,243.415C475.722,242.993 476.067,242.634 476.467,242.336C476.871,242.034 477.317,241.801 477.805,241.637C478.292,241.473 478.808,241.391 479.352,241.391C480.265,241.391 481.1,241.61 481.857,242.046C482.614,242.478 483.221,243.075 483.677,243.839C484.134,244.598 484.362,245.468 484.362,246.45C484.362,247.393 484.142,248.256 483.701,249.039C483.26,249.818 482.64,250.438 481.842,250.899C481.048,251.356 480.115,251.579 479.041,251.569ZM479.041,249.932C479.695,249.932 480.281,249.776 480.799,249.463C481.323,249.151 481.735,248.732 482.036,248.206C482.342,247.68 482.495,247.095 482.495,246.45C482.495,245.82 482.347,245.248 482.052,244.732C481.761,244.211 481.359,243.797 480.846,243.489C480.338,243.182 479.757,243.028 479.104,243.028C478.611,243.028 478.152,243.122 477.727,243.311C477.302,243.494 476.928,243.747 476.607,244.07C476.29,244.392 476.041,244.762 475.86,245.178C475.678,245.59 475.588,246.024 475.588,246.48C475.588,247.085 475.735,247.651 476.031,248.176C476.332,248.702 476.741,249.126 477.26,249.449C477.784,249.771 478.378,249.932 479.041,249.932Z" fill="#000000"/>
<rect  x="546.657" y="211.779" width="1.825" height="7.699" fill="#000000"/>
<path d="M543.46,251.36L550.585,237.88L550.585,237.761L542.371,237.761L542.371,236.124L552.577,236.124L552.577,237.85L545.483,251.36L543.46,251.36Z" fill="#000000"/>
<rect  x="615.29" y="211.779" width="1.825" height="7.699" fill="#000000"/>
<path d="M616.206,251.569C615.138,251.569 614.194,251.388 613.375,251.026C612.56,250.659 611.925,250.155 611.469,249.515C611.013,248.871 610.787,248.137 610.792,247.313C610.787,246.669 610.919,246.073 611.189,245.528C611.459,244.977 611.827,244.519 612.293,244.152C612.765,243.78 613.292,243.544 613.872,243.445L613.872,243.356C613.11,243.167 612.503,242.758 612.052,242.128C611.601,241.493 611.378,240.772 611.383,239.963C611.378,239.189 611.583,238.498 611.998,237.887C612.413,237.277 612.983,236.796 613.709,236.444C614.44,236.092 615.273,235.916 616.206,235.916C617.129,235.916 617.954,236.092 618.68,236.444C619.406,236.796 619.976,237.277 620.391,237.887C620.811,238.498 621.024,239.189 621.029,239.963C621.024,240.772 620.793,241.493 620.337,242.128C619.885,242.758 619.286,243.167 618.54,243.356L618.54,243.445C619.115,243.544 619.634,243.78 620.095,244.152C620.557,244.519 620.925,244.977 621.2,245.528C621.475,246.073 621.615,246.669 621.62,247.313C621.615,248.137 621.382,248.871 620.92,249.515C620.464,250.155 619.828,250.659 619.014,251.026C618.205,251.388 617.269,251.569 616.206,251.569ZM616.206,249.932C616.927,249.932 617.549,249.82 618.073,249.597C618.597,249.374 619.001,249.059 619.286,248.652C619.572,248.246 619.717,247.77 619.722,247.224C619.717,246.649 619.561,246.14 619.255,245.699C618.949,245.258 618.532,244.91 618.003,244.657C617.479,244.405 616.88,244.278 616.206,244.278C615.527,244.278 614.92,244.405 614.386,244.657C613.857,244.91 613.439,245.258 613.134,245.699C612.833,246.14 612.685,246.649 612.69,247.224C612.685,247.77 612.822,248.246 613.102,248.652C613.388,249.059 613.795,249.374 614.324,249.597C614.853,249.82 615.48,249.932 616.206,249.932ZM616.206,242.701C616.777,242.701 617.282,242.592 617.723,242.374C618.169,242.155 618.519,241.85 618.773,241.458C619.027,241.067 619.157,240.608 619.162,240.082C619.157,239.566 619.03,239.117 618.781,238.736C618.532,238.349 618.187,238.051 617.746,237.843C617.305,237.63 616.792,237.523 616.206,237.523C615.61,237.523 615.089,237.63 614.643,237.843C614.197,238.051 613.852,238.349 613.608,238.736C613.364,239.117 613.245,239.566 613.25,240.082C613.245,240.608 613.367,241.067 613.616,241.458C613.87,241.85 614.22,242.155 614.666,242.374C615.112,242.592 615.625,242.701 616.206,242.701Z" fill="#000000"/>
<rect  x="683.923" y="211.779" width="1.825" height="7.699" fill="#000000"/>
<path d="M684.722,235.916C685.375,235.921 686.029,236.04 686.682,236.273C687.336,236.506 687.932,236.893 688.471,237.433C689.011,237.969 689.444,238.701 689.77,239.628C690.097,240.556 690.26,241.719 690.26,243.117C690.26,244.471 690.126,245.674 689.856,246.725C689.591,247.772 689.208,248.655 688.705,249.374C688.207,250.093 687.6,250.639 686.884,251.011C686.174,251.382 685.37,251.568 684.473,251.568C683.581,251.568 682.785,251.4 682.085,251.063C681.39,250.72 680.82,250.247 680.374,249.642C679.933,249.032 679.65,248.325 679.526,247.521L681.424,247.521C681.595,248.221 681.935,248.799 682.443,249.255C682.956,249.706 683.633,249.932 684.473,249.932C685.702,249.932 686.672,249.418 687.382,248.392C688.098,247.365 688.456,245.914 688.456,244.04L688.331,244.04C688.041,244.456 687.696,244.816 687.297,245.118C686.897,245.421 686.454,245.654 685.967,245.818C685.479,245.981 684.961,246.063 684.411,246.063C683.498,246.063 682.661,245.847 681.898,245.416C681.141,244.98 680.534,244.382 680.078,243.623C679.627,242.859 679.401,241.986 679.401,241.004C679.401,240.072 679.619,239.219 680.055,238.445C680.496,237.667 681.113,237.047 681.906,236.585C682.705,236.124 683.643,235.901 684.722,235.916ZM684.722,237.552C684.069,237.552 683.48,237.709 682.956,238.021C682.438,238.329 682.025,238.745 681.719,239.271C681.419,239.792 681.268,240.37 681.268,241.004C681.268,241.639 681.413,242.217 681.704,242.738C681.999,243.254 682.401,243.665 682.91,243.973C683.423,244.275 684.006,244.427 684.66,244.427C685.152,244.427 685.611,244.335 686.037,244.151C686.462,243.963 686.833,243.707 687.149,243.385C687.47,243.058 687.722,242.688 687.903,242.277C688.085,241.86 688.176,241.426 688.176,240.975C688.176,240.379 688.025,239.821 687.725,239.301C687.429,238.78 687.019,238.358 686.496,238.036C685.977,237.714 685.386,237.552 684.722,237.552Z" fill="#000000"/>
<rect  x="67.141" y="210.906" width="617.695" height="1.746" fill="#CCCCCC"/>
<rect  x="67.141" y="159.58" width="617.695" height="1.746" fill="#CCCCCC"/>
<rect  x="67.141" y="108.253" width="617.695" height="1.746" fill="#CCCCCC"/>
<rect  x="67.141" y="56.927" width="617.695" height="1.746" fill="#CCCCCC"/>
<rect  x="67.141" y="5.6" width="617.695" height="1.746" fill="#CCCCCC"/>
<rect  x="66.228" y="6.473" width="1.825" height="205.307" fill="#CCCCCC"/>
<rect  x="134.86" y="6.473" width="1.825" height="205.307" fill="#CCCCCC"/>
<rect  x="203.493" y="6.473" width="1.825" height="205.307" fill="#CCCCCC"/>
<rect  x="272.126" y="6.473" width="1.825" height="205.307" fill="#CCCCCC"/>
<rect  x="340.759" y="6.473" width="1.825" height="205.307" fill="#CCCCCC"/>
<rect  x="409.392" y="6.473" width="1.825" height="205.307" fill="#CCCCCC"/>
<rect  x="478.023" y="6.473" width="1.825" height="205.307" fill="#CCCCCC"/>
<rect  x="546.656" y="6.473" width="1.825" height="205.307" fill="#CCCCCC"/>
<rect  x="615.289" y="6.473" width="1.825" height="205.307" fill="#CCCCCC"/>
<rect  x="683.922" y="6.473" width="1.825" height="205.307" fill="#CCCCCC"/>
<path d="M73.598,24.901L75.144,23.974L143.178,127.766L211.502,64.407L280.136,103.415L349.062,39.498L418.226,140.878L486.452,195.982L554.36,187.856L623.086,117.957L692.18,126.225L691.952,127.957L623.78,119.8L555.24,189.51L485.884,197.809L416.844,142.047L348.742,42.226L280.404,105.599L211.77,66.59L142.829,130.521L73.598,24.901Z" clip-rule="evenodd" fill-rule="evenodd" fill="#7E16FD"/>
<path d="M74.371,28.287C76.083,28.287 77.47,26.563 77.47,24.437C77.47,22.311 76.083,20.588 74.371,20.588C72.66,20.588 71.272,22.311 71.272,24.437C71.272,26.563 72.66,28.287 74.371,28.287Z" fill="#FFFFFF"/>
<path d="M74.371,21.461C73.371,21.461 72.185,22.567 72.185,24.437C72.185,26.307 73.371,27.414 74.371,27.414C75.371,27.414 76.557,26.307 76.557,24.437C76.557,22.567 75.371,21.461 74.371,21.461ZM70.359,24.437C70.359,22.055 71.948,19.715 74.371,19.715C76.794,19.715 78.382,22.055 78.382,24.437C78.382,26.819 76.794,29.16 74.371,29.16C71.948,29.16 70.359,26.819 70.359,24.437Z" clip-rule="evenodd" fill-rule="evenodd" fill="#7E16FD"/>
<path d="M143.004,132.993C144.715,132.993 146.103,131.269 146.103,129.143C146.103,127.017 144.715,125.294 143.004,125.294C141.293,125.294 139.905,127.017 139.905,129.143C139.905,131.269 141.293,132.993 143.004,132.993Z" fill="#FFFFFF"/>
<path d="M143.004,126.168C142.004,126.168 140.818,127.274 140.818,129.144C140.818,131.014 142.004,132.121 143.004,132.121C144.004,132.121 145.19,131.014 145.19,129.144C145.19,127.274 144.004,126.168 143.004,126.168ZM138.992,129.144C138.992,126.762 140.581,124.422 143.004,124.422C145.427,124.422 147.015,126.762 147.015,129.144C147.015,131.526 145.427,133.867 143.004,133.867C140.581,133.867 138.992,131.526 138.992,129.144Z" clip-rule="evenodd" fill-rule="evenodd" fill="#7E16FD"/>
<path d="M211.636,69.348C213.347,69.348 214.735,67.625 214.735,65.499C214.735,63.373 213.347,61.649 211.636,61.649C209.924,61.649 208.537,63.373 208.537,65.499C208.537,67.625 209.924,69.348 211.636,69.348Z" fill="#FFFFFF"/>
<path d="M211.637,62.522C210.637,62.522 209.45,63.629 209.45,65.499C209.45,67.369 210.637,68.475 211.637,68.475C212.636,68.475 213.823,67.369 213.823,65.499C213.823,63.629 212.636,62.522 211.637,62.522ZM207.625,65.499C207.625,63.117 209.213,60.776 211.637,60.776C214.06,60.776 215.648,63.117 215.648,65.499C215.648,67.881 214.06,70.221 211.637,70.221C209.213,70.221 207.625,67.881 207.625,65.499Z" clip-rule="evenodd" fill-rule="evenodd" fill="#7E16FD"/>
<path d="M280.269,108.356C281.98,108.356 283.368,106.633 283.368,104.507C283.368,102.381 281.98,100.657 280.269,100.657C278.557,100.657 277.17,102.381 277.17,104.507C277.17,106.633 278.557,108.356 280.269,108.356Z" fill="#FFFFFF"/>
<path d="M280.269,101.53C279.269,101.53 278.083,102.637 278.083,104.507C278.083,106.376 279.269,107.483 280.269,107.483C281.269,107.483 282.455,106.376 282.455,104.507C282.455,102.637 281.269,101.53 280.269,101.53ZM276.258,104.507C276.258,102.124 277.846,99.784 280.269,99.784C282.692,99.784 284.281,102.124 284.281,104.507C284.281,106.889 282.692,109.229 280.269,109.229C277.846,109.229 276.258,106.889 276.258,104.507Z" clip-rule="evenodd" fill-rule="evenodd" fill="#7E16FD"/>
<path d="M348.902,44.712C350.613,44.712 352,42.988 352,40.862C352,38.736 350.613,37.013 348.902,37.013C347.19,37.013 345.803,38.736 345.803,40.862C345.803,42.988 347.19,44.712 348.902,44.712Z" fill="#FFFFFF"/>
<path d="M348.902,37.885C347.902,37.885 346.716,38.992 346.716,40.862C346.716,42.732 347.902,43.839 348.902,43.839C349.902,43.839 351.088,42.732 351.088,40.862C351.088,38.992 349.902,37.885 348.902,37.885ZM344.891,40.862C344.891,38.48 346.479,36.14 348.902,36.14C351.325,36.14 352.914,38.48 352.914,40.862C352.914,43.244 351.325,45.584 348.902,45.584C346.479,45.584 344.891,43.244 344.891,40.862Z" clip-rule="evenodd" fill-rule="evenodd" fill="#7E16FD"/>
<path d="M417.534,145.311C419.246,145.311 420.633,143.588 420.633,141.462C420.633,139.336 419.246,137.612 417.534,137.612C415.823,137.612 414.436,139.336 414.436,141.462C414.436,143.588 415.823,145.311 417.534,145.311Z" fill="#FFFFFF"/>
<path d="M417.535,138.486C416.535,138.486 415.349,139.593 415.349,141.463C415.349,143.333 416.535,144.439 417.535,144.439C418.535,144.439 419.721,143.333 419.721,141.463C419.721,139.593 418.535,138.486 417.535,138.486ZM413.523,141.463C413.523,139.08 415.112,136.74 417.535,136.74C419.958,136.74 421.546,139.08 421.546,141.463C421.546,143.845 419.958,146.185 417.535,146.185C415.112,146.185 413.523,143.845 413.523,141.463Z" clip-rule="evenodd" fill-rule="evenodd" fill="#7E16FD"/>
<path d="M486.167,200.745C487.879,200.745 489.266,199.021 489.266,196.895C489.266,194.769 487.879,193.046 486.167,193.046C484.456,193.046 483.068,194.769 483.068,196.895C483.068,199.021 484.456,200.745 486.167,200.745Z" fill="#FFFFFF"/>
<path d="M486.168,193.919C485.168,193.919 483.982,195.025 483.982,196.895C483.982,198.765 485.168,199.872 486.168,199.872C487.168,199.872 488.354,198.765 488.354,196.895C488.354,195.025 487.168,193.919 486.168,193.919ZM482.156,196.895C482.156,194.513 483.745,192.173 486.168,192.173C488.591,192.173 490.179,194.513 490.179,196.895C490.179,199.277 488.591,201.618 486.168,201.618C483.745,201.618 482.156,199.277 482.156,196.895Z" clip-rule="evenodd" fill-rule="evenodd" fill="#7E16FD"/>
<path d="M554.8,192.532C556.511,192.532 557.899,190.809 557.899,188.683C557.899,186.556 556.511,184.833 554.8,184.833C553.089,184.833 551.701,186.556 551.701,188.683C551.701,190.809 553.089,192.532 554.8,192.532Z" fill="#FFFFFF"/>
<path d="M554.8,185.707C553.8,185.707 552.613,186.813 552.613,188.683C552.613,190.553 553.8,191.66 554.8,191.66C555.799,191.66 556.986,190.553 556.986,188.683C556.986,186.813 555.799,185.707 554.8,185.707ZM550.788,188.683C550.788,186.301 552.377,183.961 554.8,183.961C557.223,183.961 558.811,186.301 558.811,188.683C558.811,191.066 557.223,193.406 554.8,193.406C552.377,193.406 550.788,191.066 550.788,188.683Z" clip-rule="evenodd" fill-rule="evenodd" fill="#7E16FD"/>
<path d="M623.433,122.728C625.144,122.728 626.532,121.005 626.532,118.879C626.532,116.753 625.144,115.029 623.433,115.029C621.721,115.029 620.334,116.753 620.334,118.879C620.334,121.005 621.721,122.728 623.433,122.728Z" fill="#FFFFFF"/>
<path d="M623.432,115.902C622.433,115.902 621.246,117.009 621.246,118.879C621.246,120.749 622.433,121.855 623.432,121.855C624.432,121.855 625.618,120.749 625.618,118.879C625.618,117.009 624.432,115.902 623.432,115.902ZM619.421,118.879C619.421,116.496 621.009,114.156 623.432,114.156C625.855,114.156 627.444,116.496 627.444,118.879C627.444,121.261 625.855,123.601 623.432,123.601C621.009,123.601 619.421,121.261 619.421,118.879Z" clip-rule="evenodd" fill-rule="evenodd" fill="#7E16FD"/>
<path d="M692.066,130.94C693.777,130.94 695.164,129.217 695.164,127.091C695.164,124.965 693.777,123.241 692.066,123.241C690.354,123.241 688.967,124.965 688.967,127.091C688.967,129.217 690.354,130.94 692.066,130.94Z" fill="#FFFFFF"/>
<path d="M692.065,124.114C691.065,124.114 689.879,125.221 689.879,127.091C689.879,128.96 691.065,130.067 692.065,130.067C693.065,130.067 694.251,128.96 694.251,127.091C694.251,125.221 693.065,124.114 692.065,124.114ZM688.054,127.091C688.054,124.708 689.642,122.368 692.065,122.368C694.488,122.368 696.077,124.708 696.077,127.091C696.077,129.473 694.488,131.813 692.065,131.813C689.642,131.813 688.054,129.473 688.054,127.091Z" clip-rule="evenodd" fill-rule="evenodd" fill="#7E16FD"/>
<path d="M410.369,8.658L479.355,148.986L547.063,114.554L616.045,60.902L685.179,87.786L684.491,89.404L616.359,62.908L548.077,116.016L478.519,151.388L410.239,12.499L342.263,130.438L272.539,142.953L204.249,16.297L136.3,99.634L67.362,116.132L66.919,114.438L135.247,98.087L204.563,13.072L273.539,140.997L341.079,128.875L410.369,8.658Z" clip-rule="evenodd" fill-rule="evenodd" fill="#4FA1B2" fill-opacity="0.97"/>
<path d="M67.141,119.135C68.852,119.135 70.24,117.411 70.24,115.285C70.24,113.159 68.852,111.436 67.141,111.436C65.429,111.436 64.042,113.159 64.042,115.285C64.042,117.411 65.429,119.135 67.141,119.135Z" fill="#FFFFFF"/>
<path d="M67.14,112.309C66.141,112.309 64.954,113.416 64.954,115.286C64.954,117.156 66.141,118.262 67.14,118.262C68.14,118.262 69.327,117.156 69.327,115.286C69.327,113.416 68.14,112.309 67.14,112.309ZM63.129,115.286C63.129,112.904 64.717,110.563 67.14,110.563C69.563,110.563 71.152,112.904 71.152,115.286C71.152,117.668 69.563,120.008 67.14,120.008C64.717,120.008 63.129,117.668 63.129,115.286Z" clip-rule="evenodd" fill-rule="evenodd" fill="#4FA1B2" fill-opacity="0.97"/>
<path d="M135.774,102.711C137.485,102.711 138.872,100.987 138.872,98.861C138.872,96.735 137.485,95.012 135.774,95.012C134.062,95.012 132.675,96.735 132.675,98.861C132.675,100.987 134.062,102.711 135.774,102.711Z" fill="#FFFFFF"/>
<path d="M135.773,95.884C134.773,95.884 133.587,96.991 133.587,98.861C133.587,100.731 134.773,101.838 135.773,101.838C136.773,101.838 137.959,100.731 137.959,98.861C137.959,96.991 136.773,95.884 135.773,95.884ZM131.762,98.861C131.762,96.479 133.35,94.139 135.773,94.139C138.196,94.139 139.785,96.479 139.785,98.861C139.785,101.243 138.196,103.583 135.773,103.583C133.35,103.583 131.762,101.243 131.762,98.861Z" clip-rule="evenodd" fill-rule="evenodd" fill="#4FA1B2" fill-opacity="0.97"/>
<path d="M204.405,18.535C206.117,18.535 207.504,16.811 207.504,14.685C207.504,12.559 206.117,10.836 204.405,10.836C202.694,10.836 201.307,12.559 201.307,14.685C201.307,16.811 202.694,18.535 204.405,18.535Z" fill="#FFFFFF"/>
<path d="M204.406,11.709C203.406,11.709 202.22,12.815 202.22,14.685C202.22,16.555 203.406,17.662 204.406,17.662C205.406,17.662 206.592,16.555 206.592,14.685C206.592,12.815 205.406,11.709 204.406,11.709ZM200.395,14.685C200.395,12.303 201.983,9.963 204.406,9.963C206.829,9.963 208.418,12.303 208.418,14.685C208.418,17.067 206.829,19.408 204.406,19.408C201.983,19.408 200.395,17.067 200.395,14.685Z" clip-rule="evenodd" fill-rule="evenodd" fill="#4FA1B2" fill-opacity="0.97"/>
<path d="M273.038,145.825C274.75,145.825 276.137,144.102 276.137,141.975C276.137,139.849 274.75,138.126 273.038,138.126C271.327,138.126 269.939,139.849 269.939,141.975C269.939,144.102 271.327,145.825 273.038,145.825Z" fill="#FFFFFF"/>
<path d="M273.039,138.999C272.039,138.999 270.853,140.105 270.853,141.975C270.853,143.845 272.039,144.952 273.039,144.952C274.039,144.952 275.225,143.845 275.225,141.975C275.225,140.105 274.039,138.999 273.039,138.999ZM269.027,141.975C269.027,139.593 270.616,137.253 273.039,137.253C275.462,137.253 277.05,139.593 277.05,141.975C277.05,144.358 275.462,146.698 273.039,146.698C270.616,146.698 269.027,144.358 269.027,141.975Z" clip-rule="evenodd" fill-rule="evenodd" fill="#4FA1B2" fill-opacity="0.97"/>
<path d="M341.671,133.507C343.382,133.507 344.77,131.783 344.77,129.657C344.77,127.531 343.382,125.808 341.671,125.808C339.96,125.808 338.572,127.531 338.572,129.657C338.572,131.783 339.96,133.507 341.671,133.507Z" fill="#FFFFFF"/>
<path d="M341.672,126.68C340.672,126.68 339.486,127.787 339.486,129.657C339.486,131.527 340.672,132.634 341.672,132.634C342.671,132.634 343.858,131.527 343.858,129.657C343.858,127.787 342.671,126.68 341.672,126.68ZM337.66,129.657C337.66,127.275 339.249,124.935 341.672,124.935C344.095,124.935 345.683,127.275 345.683,129.657C345.683,132.039 344.095,134.379 341.672,134.379C339.249,134.379 337.66,132.039 337.66,129.657Z" clip-rule="evenodd" fill-rule="evenodd" fill="#4FA1B2" fill-opacity="0.97"/>
<path d="M410.304,14.429C412.015,14.429 413.403,12.705 413.403,10.579C413.403,8.453 412.015,6.729 410.304,6.729C408.592,6.729 407.205,8.453 407.205,10.579C407.205,12.705 408.592,14.429 410.304,14.429Z" fill="#FFFFFF"/>
<path d="M410.304,7.602C409.305,7.602 408.118,8.709 408.118,10.579C408.118,12.449 409.305,13.555 410.304,13.555C411.304,13.555 412.491,12.449 412.491,10.579C412.491,8.709 411.304,7.602 410.304,7.602ZM406.293,10.579C406.293,8.197 407.881,5.856 410.304,5.856C412.727,5.856 414.316,8.197 414.316,10.579C414.316,12.961 412.727,15.301 410.304,15.301C407.881,15.301 406.293,12.961 406.293,10.579Z" clip-rule="evenodd" fill-rule="evenodd" fill="#4FA1B2" fill-opacity="0.97"/>
<path d="M478.937,154.037C480.648,154.037 482.035,152.313 482.035,150.187C482.035,148.061 480.648,146.338 478.937,146.338C477.225,146.338 475.838,148.061 475.838,150.187C475.838,152.313 477.225,154.037 478.937,154.037Z" fill="#FFFFFF"/>
<path d="M478.937,147.211C477.937,147.211 476.751,148.317 476.751,150.187C476.751,152.057 477.937,153.164 478.937,153.164C479.937,153.164 481.123,152.057 481.123,150.187C481.123,148.317 479.937,147.211 478.937,147.211ZM474.926,150.187C474.926,147.805 476.514,145.465 478.937,145.465C481.36,145.465 482.949,147.805 482.949,150.187C482.949,152.569 481.36,154.91 478.937,154.91C476.514,154.91 474.926,152.569 474.926,150.187Z" clip-rule="evenodd" fill-rule="evenodd" fill="#4FA1B2" fill-opacity="0.97"/>
<path d="M547.57,119.135C549.281,119.135 550.668,117.411 550.668,115.285C550.668,113.159 549.281,111.436 547.57,111.436C545.858,111.436 544.471,113.159 544.471,115.285C544.471,117.411 545.858,119.135 547.57,119.135Z" fill="#FFFFFF"/>
<path d="M547.569,112.309C546.569,112.309 545.383,113.416 545.383,115.286C545.383,117.156 546.569,118.262 547.569,118.262C548.569,118.262 549.755,117.156 549.755,115.286C549.755,113.416 548.569,112.309 547.569,112.309ZM543.558,115.286C543.558,112.904 545.146,110.563 547.569,110.563C549.992,110.563 551.581,112.904 551.581,115.286C551.581,117.668 549.992,120.008 547.569,120.008C545.146,120.008 543.558,117.668 543.558,115.286Z" clip-rule="evenodd" fill-rule="evenodd" fill="#4FA1B2" fill-opacity="0.97"/>
<path d="M616.202,65.755C617.914,65.755 619.301,64.031 619.301,61.905C619.301,59.779 617.914,58.056 616.202,58.056C614.491,58.056 613.104,59.779 613.104,61.905C613.104,64.031 614.491,65.755 616.202,65.755Z" fill="#FFFFFF"/>
<path d="M616.202,58.929C615.202,58.929 614.016,60.036 614.016,61.906C614.016,63.776 615.202,64.883 616.202,64.883C617.202,64.883 618.388,63.776 618.388,61.906C618.388,60.036 617.202,58.929 616.202,58.929ZM612.19,61.906C612.19,59.524 613.779,57.184 616.202,57.184C618.625,57.184 620.213,59.524 620.213,61.906C620.213,64.288 618.625,66.628 616.202,66.628C613.779,66.628 612.19,64.288 612.19,61.906Z" clip-rule="evenodd" fill-rule="evenodd" fill="#4FA1B2" fill-opacity="0.97"/>
<path d="M684.835,92.445C686.547,92.445 687.934,90.722 687.934,88.596C687.934,86.47 686.547,84.746 684.835,84.746C683.124,84.746 681.736,86.47 681.736,88.596C681.736,90.722 683.124,92.445 684.835,92.445Z" fill="#FFFFFF"/>
<path d="M684.835,85.619C683.835,85.619 682.649,86.726 682.649,88.595C682.649,90.465 683.835,91.572 684.835,91.572C685.835,91.572 687.021,90.465 687.021,88.595C687.021,86.726 685.835,85.619 684.835,85.619ZM680.823,88.595C680.823,86.213 682.412,83.873 684.835,83.873C687.258,83.873 688.846,86.213 688.846,88.595C688.846,90.978 687.258,93.318 684.835,93.318C682.412,93.318 680.823,90.978 680.823,88.595Z" clip-rule="evenodd" fill-rule="evenodd" fill="#4FA1B2" fill-opacity="0.97"/>
</svg>
