<svg width="786" height="130" viewBox="0 0 786 130" fill="none" xmlns="http://www.w3.org/2000/svg" xmlns:xlink="http://www.w3.org/1999/xlink">
<path d="M0,40C0,17.909 17.909,0 40,0L746,0C768.092,0 786,17.909 786,40L786,90C786,112.091 768.092,130 746,130L40,130C17.909,130 0,112.091 0,90L0,40Z" fill="#FFFFFF" fill-opacity="0.35"/>
<path d="M43.287,67.933C44.235,67.005 44.235,65.499 43.287,64.571L31.144,52.696C30.195,51.768 28.654,51.768 27.706,52.696C26.757,53.624 26.757,55.13 27.706,56.058L35.712,63.881L12.429,63.881C11.085,63.881 10,64.942 10,66.256C10,67.569 11.085,68.631 12.429,68.631L35.705,68.631L27.713,76.453C26.765,77.381 26.765,78.888 27.713,79.815C28.662,80.743 30.203,80.743 31.151,79.815L43.294,67.94L43.287,67.933Z" transform="rotate(360 26.999 66.256)" fill="#212020"/>
<path d="M693,64C693,62.674 693.492,61.402 694.367,60.464C695.242,59.527 696.429,59 697.667,59C698.904,59 700.091,59.527 700.966,60.464C701.842,61.402 702.333,62.674 702.333,64C702.333,65.326 701.842,66.598 700.966,67.536C700.091,68.473 698.904,69 697.667,69C696.429,69 695.242,68.473 694.367,67.536C693.492,66.598 693,65.326 693,64ZM706.333,64C706.333,62.674 706.825,61.402 707.7,60.464C708.575,59.527 709.762,59 711,59C712.238,59 713.425,59.527 714.3,60.464C715.175,61.402 715.667,62.674 715.667,64C715.667,65.326 715.175,66.598 714.3,67.536C713.425,68.473 712.238,69 711,69C709.762,69 708.575,68.473 707.7,67.536C706.825,66.598 706.333,65.326 706.333,64ZM724.333,59C725.571,59 726.758,59.527 727.633,60.464C728.508,61.402 729,62.674 729,64C729,65.326 728.508,66.598 727.633,67.536C726.758,68.473 725.571,69 724.333,69C723.096,69 721.909,68.473 721.034,67.536C720.158,66.598 719.667,65.326 719.667,64C719.667,62.674 720.158,61.402 721.034,60.464C721.909,59.527 723.096,59 724.333,59Z" transform="rotate(-180 711 64)" fill="#565656"/>
</svg>
