<svg width="786" height="148" viewBox="0 0 786 148" fill="none" xmlns="http://www.w3.org/2000/svg" xmlns:xlink="http://www.w3.org/1999/xlink">
<rect  x="0" y="2" width="786" height="146" rx="20" fill="#C8C4C4"/>
<path d="M44,94C49.835,94 55.431,91.682 59.556,87.556C63.682,83.431 66,77.835 66,72C66,66.165 63.682,60.569 59.556,56.444C55.431,52.318 49.835,50 44,50C38.165,50 32.569,52.318 28.444,56.444C24.318,60.569 22,66.165 22,72C22,77.835 24.318,83.431 28.444,87.556C32.569,91.682 38.165,94 44,94ZM36.102,77.973C37.641,79.752 40.27,81.625 44,81.625C47.73,81.625 50.359,79.752 51.898,77.973C52.396,77.397 53.264,77.337 53.84,77.835C54.416,78.334 54.476,79.202 53.977,79.777C52.061,81.977 48.735,84.375 44,84.375C39.265,84.375 35.939,81.977 34.023,79.777C33.524,79.202 33.584,78.334 34.16,77.835C34.736,77.337 35.604,77.397 36.102,77.973ZM34.409,67.875C34.409,67.146 34.699,66.446 35.215,65.93C35.731,65.415 36.43,65.125 37.159,65.125C37.889,65.125 38.588,65.415 39.104,65.93C39.62,66.446 39.909,67.146 39.909,67.875C39.909,68.604 39.62,69.304 39.104,69.82C38.588,70.335 37.889,70.625 37.159,70.625C36.43,70.625 35.731,70.335 35.215,69.82C34.699,69.304 34.409,68.604 34.409,67.875ZM50.909,65.125C51.639,65.125 52.338,65.415 52.854,65.93C53.37,66.446 53.659,67.146 53.659,67.875C53.659,68.604 53.37,69.304 52.854,69.82C52.338,70.335 51.639,70.625 50.909,70.625C50.18,70.625 49.481,70.335 48.965,69.82C48.449,69.304 48.159,68.604 48.159,67.875C48.159,67.146 48.449,66.446 48.965,65.93C49.481,65.415 50.18,65.125 50.909,65.125Z" fill="#609CAA"/>
<path d="M644.018,62.563C641.577,60.408 637.615,60.408 635.174,62.563L616.764,78.809C612.552,82.526 612.552,88.548 616.764,92.265C620.977,95.983 627.8,95.983 632.012,92.265L647.22,78.844C648.311,77.882 650.092,77.882 651.182,78.844C652.273,79.807 652.273,81.378 651.182,82.341L635.974,95.762C629.571,101.413 619.206,101.413 612.802,95.762C606.399,90.111 606.399,80.963 612.802,75.313L631.212,59.066C635.844,54.978 643.348,54.978 647.98,59.066C652.613,63.154 652.613,69.776 647.98,73.864L630.371,89.405C627.51,91.93 622.868,91.93 620.006,89.405C617.145,86.879 617.145,82.782 620.006,80.257L634.414,67.542C635.504,66.58 637.285,66.58 638.376,67.542C639.466,68.505 639.466,70.077 638.376,71.039L623.968,83.754C623.298,84.345 623.298,85.316 623.968,85.908C624.639,86.5 625.739,86.5 626.409,85.908L644.018,70.368C646.46,68.214 646.46,64.717 644.018,62.563Z" transform="rotate(360 630 78)" fill="#609CAA"/>
<path d="M741,50C734.676,50 729.545,54.535 729.545,60.125L729.545,77C729.545,82.59 734.676,87.125 741,87.125C747.324,87.125 752.455,82.59 752.455,77L752.455,60.125C752.455,54.535 747.324,50 741,50ZM725.727,72.781C725.727,71.379 724.451,70.25 722.864,70.25C721.277,70.25 720,71.379 720,72.781L720,77C720,85.887 727.064,93.312 736.49,95.136C737.424,95.316 738.136,96.109 738.136,97.059L738.136,97.059C738.136,98.097 737.295,98.938 736.258,98.938L732.409,98.938C730.822,98.938 729.545,100.066 729.545,101.469C729.545,102.871 730.822,104 732.409,104L741,104L749.591,104C751.178,104 752.455,102.871 752.455,101.469C752.455,100.066 751.178,98.938 749.591,98.938L745.742,98.938C744.705,98.938 743.864,98.097 743.864,97.059L743.864,97.059C743.864,96.109 744.576,95.316 745.51,95.136C754.936,93.312 762,85.887 762,77L762,72.781C762,71.379 760.723,70.25 759.136,70.25C757.549,70.25 756.273,71.379 756.273,72.781L756.273,77C756.273,84.457 749.436,90.5 741,90.5C732.564,90.5 725.727,84.457 725.727,77L725.727,72.781Z" fill="#609CAA"/>
</svg>
