<svg width="1140" height="204" viewBox="0 0 1140 204" fill="none" xmlns="http://www.w3.org/2000/svg" xmlns:xlink="http://www.w3.org/1999/xlink">
<path d="M5.45,177.551L28.038,198.638C28.975,199.513 30.212,200.001 31.5,200.001C32.787,200.001 34.025,199.513 34.963,198.638L35.287,198.338C32.9,194.826 31.5,190.576 31.5,186.001C31.5,173.851 41.35,164.001 53.5,164.001C57.037,164.001 60.375,164.838 63.338,166.313C63.45,165.501 63.5,164.688 63.5,163.863L63.5,163.138C63.5,154.401 57.188,146.951 48.575,145.513C42.875,144.563 37.075,146.426 33,150.501L31.5,152.001L30,150.501C25.925,146.426 20.125,144.563 14.425,145.513C5.813,146.951 -0.5,154.401 -0.5,163.138L-0.5,163.863C-0.5,169.051 1.65,174.013 5.45,177.551ZM71.5,186.001C71.5,181.227 69.604,176.648 66.228,173.273C62.852,169.897 58.274,168.001 53.5,168.001C48.726,168.001 44.148,169.897 40.772,173.273C37.396,176.648 35.5,181.227 35.5,186.001C35.5,190.775 37.396,195.353 40.772,198.729C44.148,202.104 48.726,204.001 53.5,204.001C58.274,204.001 62.852,202.104 66.228,198.729C69.604,195.353 71.5,190.775 71.5,186.001ZM61.912,180.588C62.688,181.363 62.688,182.638 61.912,183.413L52.912,192.413C52.137,193.188 50.863,193.188 50.088,192.413L45.088,187.413C44.312,186.638 44.312,185.363 45.088,184.588C45.863,183.813 47.137,183.813 47.912,184.588L51.5,188.176L59.088,180.588C59.863,179.813 61.137,179.813 61.912,180.588Z" transform="rotate(0 35.5 174.635)" fill="#000000" fill-opacity="0.57"/>
<path d="M1073.45,31.549L1096.038,52.636C1096.975,53.511 1098.212,53.999 1099.5,53.999C1100.787,53.999 1102.025,53.511 1102.963,52.636L1103.287,52.336C1100.9,48.824 1099.5,44.574 1099.5,39.999C1099.5,27.849 1109.35,17.999 1121.5,17.999C1125.037,17.999 1128.375,18.836 1131.338,20.311C1131.45,19.499 1131.5,18.686 1131.5,17.861L1131.5,17.136C1131.5,8.399 1125.188,0.949 1116.575,-0.489C1110.875,-1.439 1105.075,0.424 1101,4.499L1099.5,5.999L1098,4.499C1093.925,0.424 1088.125,-1.439 1082.425,-0.489C1073.813,0.949 1067.5,8.399 1067.5,17.136L1067.5,17.861C1067.5,23.049 1069.65,28.011 1073.45,31.549ZM1139.5,39.999C1139.5,35.225 1137.604,30.646 1134.228,27.271C1130.852,23.895 1126.274,21.999 1121.5,21.999C1116.726,21.999 1112.148,23.895 1108.772,27.271C1105.396,30.646 1103.5,35.225 1103.5,39.999C1103.5,44.773 1105.396,49.351 1108.772,52.727C1112.148,56.102 1116.726,57.999 1121.5,57.999C1126.274,57.999 1130.852,56.102 1134.228,52.727C1137.604,49.351 1139.5,44.773 1139.5,39.999ZM1129.912,34.586C1130.688,35.361 1130.688,36.636 1129.912,37.411L1120.912,46.411C1120.137,47.186 1118.863,47.186 1118.088,46.411L1113.088,41.411C1112.312,40.636 1112.312,39.361 1113.088,38.586C1113.863,37.811 1115.137,37.811 1115.912,38.586L1119.5,42.174L1127.088,34.586C1127.863,33.811 1129.137,33.811 1129.912,34.586Z" transform="rotate(0 1103.5 28.633)" fill="#000000" fill-opacity="0.57"/>
</svg>
