<svg width="128" height="126" viewBox="0 0 128 126" fill="none" xmlns="http://www.w3.org/2000/svg" xmlns:xlink="http://www.w3.org/1999/xlink">
<path d="M127.287,63C127.287,97.794 98.863,126 63.799,126C28.735,126 0.311,97.794 0.311,63C0.311,28.206 28.735,0 63.799,0C98.863,0 127.287,28.206 127.287,63Z" fill="#D9D9D9"/>
<path d="M64.806,62C69.388,62 73.782,60.209 77.022,57.021C80.261,53.833 82.082,49.509 82.082,45C82.082,40.491 80.261,36.167 77.022,32.979C73.782,29.791 69.388,28 64.806,28C60.224,28 55.83,29.791 52.59,32.979C49.35,36.167 47.53,40.491 47.53,45C47.53,49.509 49.35,53.833 52.59,57.021C55.83,60.209 60.224,62 64.806,62ZM58.638,68.375C45.344,68.375 34.573,78.973 34.573,92.055C34.573,94.234 36.368,96 38.582,96L91.03,96C93.243,96 95.038,94.234 95.038,92.055C95.038,78.973 84.268,68.375 70.974,68.375L58.638,68.375Z" fill="#FFFFFF"/>
</svg>
