<svg width="1118" height="206" viewBox="0 0 1118 206" fill="none" xmlns="http://www.w3.org/2000/svg" xmlns:xlink="http://www.w3.org/1999/xlink">
<path d="M24.639,151.263C25.339,149.163 24.201,146.901 22.114,146.201C20.026,145.501 17.751,146.638 17.051,148.726L1.051,196.726C0.351,198.826 1.489,201.088 3.576,201.788C5.664,202.488 7.939,201.351 8.639,199.263L24.639,151.263ZM33.501,146.051C31.326,145.688 29.264,147.163 28.901,149.338L20.901,197.338C20.539,199.513 22.014,201.576 24.189,201.938C26.364,202.301 28.426,200.826 28.789,198.651L36.789,150.651C37.151,148.476 35.676,146.413 33.501,146.051ZM44.839,146.001C42.626,146.001 40.839,147.788 40.839,150.001L40.839,198.001C40.839,200.213 42.626,202.001 44.839,202.001C47.051,202.001 48.839,200.213 48.839,198.001L48.839,150.001C48.839,147.788 47.051,146.001 44.839,146.001Z" transform="rotate(0 24.842 173.997)" fill="#000000" fill-opacity="0.59"/>
<path d="M1092.639,5.261C1093.339,3.161 1092.201,0.899 1090.114,0.199C1088.026,-0.501 1085.751,0.636 1085.051,2.724L1069.051,50.724C1068.351,52.824 1069.489,55.086 1071.576,55.786C1073.664,56.486 1075.939,55.349 1076.639,53.261L1092.639,5.261ZM1101.501,0.049C1099.326,-0.314 1097.264,1.161 1096.901,3.336L1088.901,51.336C1088.539,53.511 1090.014,55.574 1092.189,55.936C1094.364,56.299 1096.426,54.824 1096.789,52.649L1104.789,4.649C1105.151,2.474 1103.676,0.411 1101.501,0.049ZM1112.839,-0.001C1110.626,-0.001 1108.839,1.786 1108.839,3.999L1108.839,51.999C1108.839,54.211 1110.626,55.999 1112.839,55.999C1115.051,55.999 1116.839,54.211 1116.839,51.999L1116.839,3.999C1116.839,1.786 1115.051,-0.001 1112.839,-0.001Z" transform="rotate(0 1092.842 27.995)" fill="#000000" fill-opacity="0.59"/>
</svg>
