<svg width="54" height="14" viewBox="0 0 54 14" fill="none" xmlns="http://www.w3.org/2000/svg" xmlns:xlink="http://www.w3.org/1999/xlink">
<path d="M-1,6C-1,4.143 -0.263,2.363 1.05,1.05C2.363,-0.263 4.143,-1 6,-1C7.857,-1 9.637,-0.263 10.95,1.05C12.263,2.363 13,4.143 13,6C13,7.857 12.263,9.637 10.95,10.95C9.637,12.263 7.857,13 6,13C4.143,13 2.363,12.263 1.05,10.95C-0.263,9.637 -1,7.857 -1,6ZM19,6C19,4.143 19.737,2.363 21.05,1.05C22.363,-0.263 24.143,-1 26,-1C27.857,-1 29.637,-0.263 30.95,1.05C32.263,2.363 33,4.143 33,6C33,7.857 32.263,9.637 30.95,10.95C29.637,12.263 27.857,13 26,13C24.143,13 22.363,12.263 21.05,10.95C19.737,9.637 19,7.857 19,6ZM46,-1C47.857,-1 49.637,-0.263 50.95,1.05C52.263,2.363 53,4.143 53,6C53,7.857 52.263,9.637 50.95,10.95C49.637,12.263 47.857,13 46,13C44.143,13 42.363,12.263 41.05,10.95C39.737,9.637 39,7.857 39,6C39,4.143 39.737,2.363 41.05,1.05C42.363,-0.263 44.143,-1 46,-1Z" fill="#000000"/>
</svg>
