<svg width="46" height="44" viewBox="0 0 46 44" fill="none" xmlns="http://www.w3.org/2000/svg" xmlns:xlink="http://www.w3.org/1999/xlink">
<path d="M4.277,25.952L20.511,42.905C21.185,43.608 22.075,44 23,44C23.925,44 24.815,43.608 25.489,42.905L41.723,25.952C44.455,23.108 46,19.118 46,14.948L46,14.365C46,7.341 41.463,1.352 35.273,0.196C31.176,-0.568 27.007,0.929 24.078,4.205L23,5.411L21.922,4.205C18.993,0.929 14.824,-0.568 10.727,0.196C4.537,1.352 0,7.341 0,14.365L0,14.948C0,19.118 1.545,23.108 4.277,25.952Z" fill="#A668F2"/>
</svg>
