<svg width="72" height="64" viewBox="0 0 72 64" fill="none" xmlns="http://www.w3.org/2000/svg" xmlns:xlink="http://www.w3.org/1999/xlink">
<path d="M71.975,31.938C71.975,34.188 70.1,35.95 67.975,35.95L63.975,35.95L64.062,55.975C64.062,56.312 64.037,56.65 64,56.987L64,59C64,61.763 61.763,64 59,64L57,64C56.862,64 56.725,64 56.588,63.987C56.413,64 56.237,64 56.062,64L52,64L49,64C46.237,64 44,61.763 44,59L44,56L44,48C44,45.787 42.213,44 40,44L32,44C29.788,44 28,45.787 28,48L28,56L28,59C28,61.763 25.763,64 23,64L20,64L16.013,64C15.825,64 15.638,63.987 15.45,63.975C15.3,63.987 15.15,64 15,64L13,64C10.237,64 8,61.763 8,59L8,45C8,44.888 8,44.763 8.013,44.65L8.013,35.95L4,35.95C1.75,35.95 0,34.2 0,31.938C0,30.812 0.375,29.812 1.25,28.938L33.3,1C34.175,0.125 35.175,0 36.05,0C36.925,0 37.925,0.25 38.675,0.875L70.6,28.938C71.6,29.812 72.1,30.812 71.975,31.938Z" fill="#000000" fill-opacity="0.57"/>
</svg>
