<svg width="56" height="64" viewBox="0 0 56 64" fill="none" xmlns="http://www.w3.org/2000/svg" xmlns:xlink="http://www.w3.org/1999/xlink">
<path d="M28,32C32.243,32 36.313,30.314 39.314,27.314C42.314,24.313 44,20.243 44,16C44,11.757 42.314,7.687 39.314,4.686C36.313,1.686 32.243,0 28,0C23.757,0 19.687,1.686 16.686,4.686C13.686,7.687 12,11.757 12,16C12,20.243 13.686,24.313 16.686,27.314C19.687,30.314 23.757,32 28,32ZM22.288,38C9.975,38 0,47.975 0,60.287C0,62.337 1.663,64 3.712,64L52.287,64C54.337,64 56,62.337 56,60.287C56,47.975 46.025,38 33.713,38L22.288,38Z" fill="#DD7A83"/>
</svg>
