<svg width="56" height="64" viewBox="0 0 56 64" fill="none" xmlns="http://www.w3.org/2000/svg" xmlns:xlink="http://www.w3.org/1999/xlink">
<path d="M27.117,31.141C31.361,31.141 35.43,29.455 38.431,26.454C41.431,23.454 43.117,19.384 43.117,15.141C43.117,10.897 41.431,6.828 38.431,3.827C35.43,0.826 31.361,-0.859 27.117,-0.859C22.874,-0.859 18.804,0.826 15.803,3.827C12.803,6.828 11.117,10.897 11.117,15.141C11.117,19.384 12.803,23.454 15.803,26.454C18.804,29.455 22.874,31.141 27.117,31.141ZM21.405,37.141C9.092,37.141 -0.883,47.116 -0.883,59.428C-0.883,61.478 0.78,63.141 2.83,63.141L51.405,63.141C53.455,63.141 55.117,61.478 55.117,59.428C55.117,47.116 45.142,37.141 32.83,37.141L21.405,37.141Z" transform="rotate(0 27.117 31.141)" fill="#000000" fill-opacity="0.56"/>
</svg>
