<svg width="50" height="42" viewBox="0 0 50 42" fill="none" xmlns="http://www.w3.org/2000/svg" xmlns:xlink="http://www.w3.org/1999/xlink">
<path d="M4.648,24.772L22.295,40.954C23.027,41.626 23.994,42 25,42C26.006,42 26.973,41.626 27.705,40.954L45.352,24.772C48.32,22.058 50,18.249 50,14.269L50,13.712C50,7.007 45.068,1.29 38.34,0.187C33.887,-0.542 29.355,0.887 26.172,4.014L25,5.165L23.828,4.014C20.645,0.887 16.113,-0.542 11.66,0.187C4.932,1.29 0,7.007 0,13.712L0,14.269C0,18.249 1.68,22.058 4.648,24.772Z" fill="#FFFFFF"/>
</svg>
