<svg width="30" height="34" viewBox="0 0 30 34" fill="none" xmlns="http://www.w3.org/2000/svg" xmlns:xlink="http://www.w3.org/1999/xlink">
<path d="M0,3.188C0,1.428 1.68,0 3.75,0L3.75,3.188L3.75,29.315L13.914,23.145C14.563,22.746 15.445,22.746 16.094,23.145L26.25,29.315L26.25,3.188L3.75,3.188L3.75,0L26.25,0C28.32,0 30,1.428 30,3.188L30,32.409C30,33.007 29.609,33.552 28.984,33.824C28.359,34.096 27.609,34.05 27.039,33.704L15,26.399L2.961,33.704C2.391,34.05 1.641,34.096 1.016,33.824C0.391,33.552 0,33.007 0,32.409L0,3.188Z" fill="#000000"/>
</svg>
