<svg width="36" height="10" viewBox="0 0 36 10" fill="none" xmlns="http://www.w3.org/2000/svg" xmlns:xlink="http://www.w3.org/1999/xlink">
<path d="M-1,4C-1,2.674 -0.508,1.402 0.367,0.464C1.242,-0.473 2.429,-1 3.667,-1C4.904,-1 6.091,-0.473 6.967,0.464C7.842,1.402 8.333,2.674 8.333,4C8.333,5.326 7.842,6.598 6.967,7.536C6.091,8.473 4.904,9 3.667,9C2.429,9 1.242,8.473 0.367,7.536C-0.508,6.598 -1,5.326 -1,4ZM12.333,4C12.333,2.674 12.825,1.402 13.7,0.464C14.575,-0.473 15.762,-1 17,-1C18.238,-1 19.425,-0.473 20.3,0.464C21.175,1.402 21.667,2.674 21.667,4C21.667,5.326 21.175,6.598 20.3,7.536C19.425,8.473 18.238,9 17,9C15.762,9 14.575,8.473 13.7,7.536C12.825,6.598 12.333,5.326 12.333,4ZM30.333,-1C31.571,-1 32.758,-0.473 33.633,0.464C34.508,1.402 35,2.674 35,4C35,5.326 34.508,6.598 33.633,7.536C32.758,8.473 31.571,9 30.333,9C29.096,9 27.909,8.473 27.034,7.536C26.158,6.598 25.667,5.326 25.667,4C25.667,2.674 26.158,1.402 27.034,0.464C27.909,-0.473 29.096,-1 30.333,-1Z" transform="rotate(-180 17 4)" fill="#565656"/>
</svg>
