<svg width="1124" height="210" viewBox="0 0 1124 210" fill="none" xmlns="http://www.w3.org/2000/svg" xmlns:xlink="http://www.w3.org/1999/xlink">
<path d="M27.118,178C31.362,178 35.431,176.314 38.432,173.314C41.432,170.313 43.118,166.243 43.118,162C43.118,157.757 41.432,153.687 38.432,150.686C35.431,147.686 31.362,146 27.118,146C22.875,146 18.805,147.686 15.804,150.686C12.804,153.687 11.118,157.757 11.118,162C11.118,166.243 12.804,170.313 15.804,173.314C18.805,176.314 22.875,178 27.118,178ZM21.406,184C9.093,184 -0.882,193.975 -0.882,206.287C-0.882,208.337 0.781,210 2.831,210L51.406,210C53.456,210 55.118,208.337 55.118,206.287C55.118,193.975 45.143,184 32.831,184L21.406,184Z" transform="rotate(0 27.118 178)" fill="#000000" fill-opacity="0.56"/>
<path d="M1095.118,32C1099.362,32 1103.431,30.314 1106.432,27.314C1109.432,24.313 1111.118,20.243 1111.118,16C1111.118,11.757 1109.432,7.687 1106.432,4.686C1103.431,1.686 1099.362,0 1095.118,0C1090.875,0 1086.805,1.686 1083.804,4.686C1080.804,7.687 1079.118,11.757 1079.118,16C1079.118,20.243 1080.804,24.313 1083.804,27.314C1086.805,30.314 1090.875,32 1095.118,32ZM1089.406,38C1077.093,38 1067.118,47.975 1067.118,60.287C1067.118,62.337 1068.781,64 1070.831,64L1119.406,64C1121.456,64 1123.118,62.337 1123.118,60.287C1123.118,47.975 1113.143,38 1100.831,38L1089.406,38Z" transform="rotate(0 1095.118 32)" fill="#000000" fill-opacity="0.56"/>
</svg>
