<svg width="30" height="28" viewBox="0 0 30 28" fill="none" xmlns="http://www.w3.org/2000/svg" xmlns:xlink="http://www.w3.org/1999/xlink">
<path d="M9.018,1.345C8.597,0.327 7.487,-0.214 6.426,0.076L1.613,1.388C0.662,1.651 0,2.515 0,3.499C0,17.029 10.97,27.999 24.5,27.999C25.484,27.999 26.348,27.338 26.611,26.386L27.923,21.573C28.213,20.513 27.672,19.402 26.655,18.981L21.405,16.794C20.513,16.422 19.48,16.679 18.873,17.428L16.663,20.124C12.813,18.303 9.696,15.186 7.875,11.336L10.571,9.132C11.32,8.52 11.577,7.491 11.205,6.6L9.018,1.35L9.018,1.345Z" fill="#3C3A3A"/>
</svg>
