<svg width="34" height="30" viewBox="0 0 34 30" fill="none" xmlns="http://www.w3.org/2000/svg" xmlns:xlink="http://www.w3.org/1999/xlink">
<path d="M33.287,15.933C34.235,15.005 34.235,13.499 33.287,12.571L21.144,0.696C20.195,-0.232 18.654,-0.232 17.706,0.696C16.757,1.624 16.757,3.13 17.706,4.058L25.712,11.881L2.429,11.881C1.085,11.881 0,12.942 0,14.256C0,15.569 1.085,16.631 2.429,16.631L25.705,16.631L17.713,24.453C16.765,25.381 16.765,26.888 17.713,27.815C18.662,28.743 20.203,28.743 21.151,27.815L33.294,15.94L33.287,15.933Z" transform="rotate(360 16.999 14.256)" fill="#212020"/>
</svg>
