<svg width="108" height="124" viewBox="0 0 108 124" fill="none" xmlns="http://www.w3.org/2000/svg" xmlns:xlink="http://www.w3.org/1999/xlink">
<path d="M54,62C62.184,62 70.032,58.734 75.819,52.92C81.606,47.107 84.857,39.222 84.857,31C84.857,22.778 81.606,14.893 75.819,9.08C70.032,3.266 62.184,0 54,0C45.816,0 37.968,3.266 32.181,9.08C26.394,14.893 23.143,22.778 23.143,31C23.143,39.222 26.394,47.107 32.181,52.92C37.968,58.734 45.816,62 54,62ZM42.983,73.625C19.237,73.625 0,92.952 0,116.807C0,120.779 3.206,124 7.16,124L100.84,124C104.794,124 108,120.779 108,116.807C108,92.952 88.763,73.625 65.017,73.625L42.983,73.625Z" fill="#565656"/>
</svg>
