<svg width="110" height="126" viewBox="0 0 110 126" fill="none" xmlns="http://www.w3.org/2000/svg" xmlns:xlink="http://www.w3.org/1999/xlink">
<path d="M54.503,62.518C62.687,62.518 70.535,59.252 76.322,53.438C82.109,47.624 85.36,39.739 85.36,31.518C85.36,23.296 82.109,15.411 76.322,9.597C70.535,3.784 62.687,0.518 54.503,0.518C46.319,0.518 38.471,3.784 32.684,9.597C26.897,15.411 23.646,23.296 23.646,31.518C23.646,39.739 26.897,47.624 32.684,53.438C38.471,59.252 46.319,62.518 54.503,62.518ZM43.486,74.143C19.74,74.143 0.503,93.469 0.503,117.325C0.503,121.297 3.709,124.518 7.663,124.518L101.343,124.518C105.297,124.518 108.503,121.297 108.503,117.325C108.503,93.469 89.266,74.143 65.52,74.143L43.486,74.143Z" fill="#565656"/>
</svg>
