<svg width="54" height="56" viewBox="0 0 54 56" fill="none" xmlns="http://www.w3.org/2000/svg" xmlns:xlink="http://www.w3.org/1999/xlink">
<path d="M43.875,21.937C43.875,26.779 42.304,31.25 39.656,34.879L53.009,48.241C54.327,49.56 54.327,51.701 53.009,53.019C51.69,54.337 49.549,54.337 48.231,53.019L34.879,39.656C31.25,42.314 26.779,43.875 21.938,43.875C9.819,43.875 0,34.056 0,21.937C0,9.819 9.819,0 21.938,0C34.056,0 43.875,9.819 43.875,21.937ZM21.938,37.125C23.932,37.125 25.907,36.732 27.75,35.969C29.592,35.206 31.266,34.087 32.677,32.677C34.087,31.266 35.206,29.592 35.969,27.75C36.732,25.907 37.125,23.932 37.125,21.937C37.125,19.943 36.732,17.968 35.969,16.125C35.206,14.283 34.087,12.609 32.677,11.198C31.266,9.788 29.592,8.669 27.75,7.906C25.907,7.143 23.932,6.75 21.938,6.75C19.943,6.75 17.968,7.143 16.126,7.906C14.283,8.669 12.609,9.788 11.198,11.198C9.788,12.609 8.669,14.283 7.906,16.125C7.143,17.968 6.75,19.943 6.75,21.937C6.75,23.932 7.143,25.907 7.906,27.75C8.669,29.592 9.788,31.266 11.198,32.677C12.609,34.087 14.283,35.206 16.126,35.969C17.968,36.732 19.943,37.125 21.938,37.125Z" fill="#5E4E9E"/>
</svg>
