<svg width="32" height="22" viewBox="0 0 32 22" fill="none" xmlns="http://www.w3.org/2000/svg" xmlns:xlink="http://www.w3.org/1999/xlink">
<path d="M0,3C0,1.07 1.594,-0.5 3.556,-0.5L17.778,-0.5C19.739,-0.5 21.333,1.07 21.333,3L21.333,17C21.333,18.93 19.739,20.5 17.778,20.5L3.556,20.5C1.594,20.5 0,18.93 0,17L0,3ZM31.061,1.458C31.639,1.764 32,2.355 32,3L32,17C32,17.645 31.639,18.236 31.061,18.542C30.483,18.848 29.783,18.816 29.233,18.455L23.9,14.955L23.111,14.435L23.111,13.5L23.111,6.5L23.111,5.565L23.9,5.045L29.233,1.545C29.778,1.19 30.478,1.152 31.061,1.458Z" fill="#3C3A3A"/>
</svg>
