<svg width="24" height="28" viewBox="0 0 24 28" fill="none" xmlns="http://www.w3.org/2000/svg" xmlns:xlink="http://www.w3.org/1999/xlink">
<path d="M1.833,1.75C1.833,0.782 2.652,0 3.666,0L18.333,0C19.347,0 20.167,0.782 20.167,1.75C20.167,2.718 19.347,3.5 18.333,3.5L16.643,3.5L17.296,11.605C19.399,12.693 21.06,14.514 21.851,16.784L21.908,16.948C22.097,17.484 22,18.069 21.656,18.523C21.312,18.977 20.757,19.25 20.167,19.25L1.833,19.25C1.243,19.25 0.693,18.982 0.344,18.523C-0.006,18.063 -0.098,17.478 0.092,16.948L0.149,16.784C0.939,14.514 2.601,12.693 4.703,11.605L5.357,3.5L3.666,3.5C2.652,3.5 1.833,2.718 1.833,1.75ZM9.166,21L12.833,21L12.833,26.25C12.833,27.218 12.014,28 11,28C9.986,28 9.166,27.218 9.166,26.25L9.166,21Z" fill="#FFFFFF"/>
</svg>
