<svg width="18" height="18" viewBox="0 0 18 18" fill="none" xmlns="http://www.w3.org/2000/svg" xmlns:xlink="http://www.w3.org/1999/xlink">
<path d="M13.505,1.96C13.997,1.512 13.997,0.784 13.505,0.336C13.012,-0.112 12.212,-0.112 11.72,0.336L6.309,5.262L4.046,3.204C3.554,2.756 2.754,2.756 2.261,3.204C1.769,3.652 1.769,4.38 2.261,4.828L5.414,7.696C5.907,8.144 6.707,8.144 7.199,7.696L13.505,1.96ZM17.288,6.549C17.781,6.101 17.781,5.373 17.288,4.925C16.796,4.477 15.996,4.477 15.503,4.925L6.309,13.292L2.155,9.517C1.662,9.069 0.862,9.069 0.369,9.517C-0.123,9.965 -0.123,10.693 0.369,11.141L5.414,15.73C5.907,16.178 6.707,16.178 7.199,15.73L17.288,6.552L17.288,6.549Z" fill="#09C4FF"/>
</svg>
