<svg width="56" height="52" viewBox="0 0 56 52" fill="none" xmlns="http://www.w3.org/2000/svg" xmlns:xlink="http://www.w3.org/1999/xlink">
<path d="M32.285,4C32.285,1.787 30.37,0 28,0C25.629,0 23.714,1.787 23.714,4L23.714,22L4.428,22C2.058,22 0.143,23.788 0.143,26C0.143,28.212 2.058,30 4.428,30L23.714,30L23.714,48C23.714,50.213 25.629,52 28,52C30.37,52 32.285,50.213 32.285,48L32.285,30L51.571,30C53.942,30 55.857,28.212 55.857,26C55.857,23.788 53.942,22 51.571,22L32.285,22L32.285,4Z" fill="#5E4E9E"/>
</svg>
