<svg width="32" height="24" viewBox="0 0 32 24" fill="none" xmlns="http://www.w3.org/2000/svg" xmlns:xlink="http://www.w3.org/1999/xlink">
<path d="M14.755,5.437C19.187,5.437 23.449,7.14 26.661,10.193C26.903,10.429 27.29,10.426 27.528,10.187L29.84,7.853C29.96,7.732 30.028,7.567 30.027,7.396C30.026,7.225 29.957,7.061 29.835,6.941C21.404,-1.138 8.105,-1.138 -0.325,6.941C-0.448,7.061 -0.517,7.225 -0.518,7.396C-0.519,7.567 -0.452,7.732 -0.331,7.853L1.981,10.187C2.219,10.426 2.606,10.429 2.848,10.193C6.06,7.139 10.323,5.437 14.755,5.437ZM14.755,13.028C17.19,13.028 19.538,13.933 21.343,15.567C21.587,15.799 21.972,15.794 22.21,15.556L24.519,13.223C24.641,13.1 24.708,12.934 24.707,12.762C24.705,12.589 24.634,12.424 24.51,12.305C19.014,7.192 10.502,7.192 5.005,12.305C4.881,12.424 4.81,12.589 4.809,12.762C4.807,12.934 4.875,13.1 4.997,13.223L7.305,15.556C7.543,15.794 7.928,15.799 8.172,15.567C9.976,13.934 12.322,13.029 14.755,13.028ZM19.381,18.135C19.385,18.309 19.317,18.475 19.193,18.597L15.199,22.628C15.081,22.746 14.922,22.813 14.755,22.813C14.589,22.813 14.429,22.746 14.312,22.628L10.317,18.597C10.193,18.475 10.125,18.308 10.129,18.135C10.133,17.962 10.207,17.798 10.336,17.683C12.887,15.525 16.623,15.525 19.175,17.683C19.303,17.799 19.378,17.962 19.381,18.135Z" clip-rule="evenodd" fill-rule="evenodd" transform="rotate(-0.241 14.754 11.847)" fill="#000000"/>
</svg>
