<svg width="32" height="24" viewBox="0 0 32 24" fill="none" xmlns="http://www.w3.org/2000/svg" xmlns:xlink="http://www.w3.org/1999/xlink">
<path d="M14.755,5.435C19.187,5.435 23.449,7.138 26.661,10.191C26.903,10.427 27.29,10.424 27.528,10.185L29.84,7.851C29.96,7.73 30.028,7.565 30.027,7.394C30.026,7.223 29.957,7.059 29.835,6.939C21.404,-1.14 8.105,-1.14 -0.325,6.939C-0.448,7.059 -0.517,7.223 -0.518,7.394C-0.519,7.565 -0.452,7.73 -0.331,7.851L1.981,10.185C2.219,10.424 2.606,10.427 2.848,10.191C6.06,7.137 10.323,5.435 14.755,5.435ZM14.755,13.026C17.19,13.026 19.538,13.931 21.343,15.565C21.587,15.797 21.972,15.792 22.21,15.554L24.519,13.221C24.641,13.098 24.708,12.932 24.707,12.76C24.705,12.587 24.634,12.422 24.51,12.303C19.014,7.19 10.502,7.19 5.005,12.303C4.881,12.422 4.81,12.587 4.809,12.76C4.807,12.932 4.875,13.098 4.997,13.221L7.305,15.554C7.543,15.792 7.928,15.797 8.172,15.565C9.976,13.932 12.322,13.027 14.755,13.026ZM19.381,18.134C19.385,18.307 19.317,18.473 19.193,18.595L15.199,22.626C15.081,22.744 14.922,22.811 14.755,22.811C14.589,22.811 14.429,22.744 14.312,22.626L10.317,18.595C10.193,18.473 10.125,18.306 10.129,18.133C10.133,17.96 10.207,17.797 10.336,17.681C12.887,15.523 16.623,15.523 19.175,17.681C19.303,17.797 19.378,17.961 19.381,18.134Z" clip-rule="evenodd" fill-rule="evenodd" transform="rotate(-0.241 14.754 11.845)" fill="#000000"/>
</svg>
