<svg width="32" height="24" viewBox="0 0 32 24" fill="none" xmlns="http://www.w3.org/2000/svg" xmlns:xlink="http://www.w3.org/1999/xlink">
<path d="M14.755,5.434C19.187,5.434 23.449,7.137 26.661,10.19C26.903,10.426 27.29,10.423 27.528,10.184L29.84,7.85C29.96,7.729 30.028,7.564 30.027,7.393C30.026,7.222 29.957,7.058 29.835,6.938C21.404,-1.141 8.105,-1.141 -0.325,6.938C-0.448,7.058 -0.517,7.222 -0.518,7.393C-0.519,7.564 -0.452,7.729 -0.331,7.85L1.981,10.184C2.219,10.423 2.606,10.426 2.848,10.19C6.06,7.136 10.323,5.434 14.755,5.434ZM14.755,13.025C17.19,13.025 19.538,13.93 21.343,15.564C21.587,15.796 21.972,15.791 22.21,15.553L24.519,13.22C24.641,13.097 24.708,12.931 24.707,12.759C24.705,12.586 24.634,12.421 24.51,12.302C19.014,7.189 10.502,7.189 5.005,12.302C4.881,12.421 4.81,12.586 4.809,12.759C4.807,12.931 4.875,13.097 4.997,13.22L7.305,15.553C7.543,15.791 7.928,15.796 8.172,15.564C9.976,13.931 12.322,13.026 14.755,13.025ZM19.381,18.133C19.385,18.306 19.317,18.472 19.193,18.594L15.199,22.625C15.081,22.743 14.922,22.81 14.755,22.81C14.589,22.81 14.429,22.743 14.312,22.625L10.317,18.594C10.193,18.472 10.125,18.305 10.129,18.132C10.133,17.959 10.207,17.796 10.336,17.68C12.887,15.522 16.623,15.522 19.175,17.68C19.303,17.796 19.378,17.96 19.381,18.133Z" clip-rule="evenodd" fill-rule="evenodd" transform="rotate(-0.241 14.754 11.845)" fill="#000000"/>
</svg>
