<svg width="50" height="24" viewBox="0 0 50 24" fill="none" xmlns="http://www.w3.org/2000/svg" xmlns:xlink="http://www.w3.org/1999/xlink">
<g opacity="0.35" style="isolation:isolate">
<path d="M0.096,6.118C0.096,3.173 2.484,0.785 5.429,0.785L38.763,0.785C41.708,0.785 44.096,3.173 44.096,6.118L44.096,18.118C44.096,21.064 41.708,23.451 38.763,23.451L5.429,23.451C2.484,23.451 0.096,21.064 0.096,18.118L0.096,6.118Z" clip-rule="evenodd" fill-rule="evenodd" transform="rotate(-0.241 22.096 12.118)" fill="#FFFFFF" stroke="#FFFFFF" stroke-width="1" stroke-miterlimit="3.999327"/>
</g>
<g opacity="0.4" style="isolation:isolate">
<path d="M46.096,8.065L46.096,16.065C47.706,15.387 48.752,13.811 48.752,12.065C48.752,10.318 47.706,8.742 46.096,8.065Z" transform="rotate(-0.241 47.424 12.065)" fill="#FFFFFF"/>
</g>
<path d="M4.096,7.451C4.096,5.978 5.29,4.784 6.763,4.784L37.43,4.784C38.902,4.784 40.096,5.978 40.096,7.451L40.096,16.784C40.096,18.257 38.902,19.451 37.43,19.451L6.763,19.451C5.29,19.451 4.096,18.257 4.096,16.784L4.096,7.451Z" transform="rotate(-0.241 22.096 12.118)" fill="#FFFFFF"/>
</svg>
