<svg width="1140" height="204" viewBox="0 0 1140 204" fill="none" xmlns="http://www.w3.org/2000/svg" xmlns:xlink="http://www.w3.org/1999/xlink">
<path d="M5.449,177.551L28.037,198.638C28.974,199.513 30.211,200.001 31.499,200.001C32.786,200.001 34.024,199.513 34.962,198.638L35.286,198.338C32.899,194.826 31.499,190.576 31.499,186.001C31.499,173.851 41.349,164.001 53.499,164.001C57.036,164.001 60.374,164.838 63.337,166.313C63.449,165.501 63.499,164.688 63.499,163.863L63.499,163.138C63.499,154.401 57.187,146.951 48.574,145.513C42.874,144.563 37.074,146.426 32.999,150.501L31.499,152.001L29.999,150.501C25.924,146.426 20.124,144.563 14.424,145.513C5.812,146.951 -0.501,154.401 -0.501,163.138L-0.501,163.863C-0.501,169.051 1.649,174.013 5.449,177.551ZM71.499,186.001C71.499,181.227 69.603,176.648 66.227,173.273C62.851,169.897 58.273,168.001 53.499,168.001C48.725,168.001 44.147,169.897 40.771,173.273C37.395,176.648 35.499,181.227 35.499,186.001C35.499,190.775 37.395,195.353 40.771,198.729C44.147,202.104 48.725,204.001 53.499,204.001C58.273,204.001 62.851,202.104 66.227,198.729C69.603,195.353 71.499,190.775 71.499,186.001ZM61.911,180.588C62.687,181.363 62.687,182.638 61.911,183.413L52.911,192.413C52.136,193.188 50.862,193.188 50.087,192.413L45.087,187.413C44.311,186.638 44.311,185.363 45.087,184.588C45.862,183.813 47.136,183.813 47.911,184.588L51.499,188.176L59.087,180.588C59.862,179.813 61.136,179.813 61.911,180.588Z" transform="rotate(0 35.499 174.635)" fill="#000000" fill-opacity="0.57"/>
<path d="M1073.449,31.549L1096.037,52.636C1096.974,53.511 1098.211,53.999 1099.499,53.999C1100.786,53.999 1102.024,53.511 1102.962,52.636L1103.286,52.336C1100.899,48.824 1099.499,44.574 1099.499,39.999C1099.499,27.849 1109.349,17.999 1121.499,17.999C1125.036,17.999 1128.374,18.836 1131.337,20.311C1131.449,19.499 1131.499,18.686 1131.499,17.861L1131.499,17.136C1131.499,8.399 1125.187,0.949 1116.574,-0.489C1110.874,-1.439 1105.074,0.424 1100.999,4.499L1099.499,5.999L1097.999,4.499C1093.924,0.424 1088.124,-1.439 1082.424,-0.489C1073.812,0.949 1067.499,8.399 1067.499,17.136L1067.499,17.861C1067.499,23.049 1069.649,28.011 1073.449,31.549ZM1139.499,39.999C1139.499,35.225 1137.603,30.646 1134.227,27.271C1130.851,23.895 1126.273,21.999 1121.499,21.999C1116.725,21.999 1112.147,23.895 1108.771,27.271C1105.395,30.646 1103.499,35.225 1103.499,39.999C1103.499,44.773 1105.395,49.351 1108.771,52.727C1112.147,56.102 1116.725,57.999 1121.499,57.999C1126.273,57.999 1130.851,56.102 1134.227,52.727C1137.603,49.351 1139.499,44.773 1139.499,39.999ZM1129.911,34.586C1130.687,35.361 1130.687,36.636 1129.911,37.411L1120.911,46.411C1120.136,47.186 1118.862,47.186 1118.087,46.411L1113.087,41.411C1112.311,40.636 1112.311,39.361 1113.087,38.586C1113.862,37.811 1115.136,37.811 1115.911,38.586L1119.499,42.174L1127.087,34.586C1127.862,33.811 1129.136,33.811 1129.911,34.586Z" transform="rotate(0 1103.499 28.633)" fill="#000000" fill-opacity="0.57"/>
</svg>
