<svg width="1142" height="210" viewBox="0 0 1142 210" fill="none" xmlns="http://www.w3.org/2000/svg" xmlns:xlink="http://www.w3.org/1999/xlink">
<path d="M72.211,177.938C72.211,180.188 70.336,181.95 68.211,181.95L64.211,181.95L64.299,201.975C64.299,202.312 64.274,202.65 64.236,202.987L64.236,205C64.236,207.763 61.999,210 59.236,210L57.236,210C57.099,210 56.961,210 56.824,209.987C56.649,210 56.474,210 56.299,210L52.236,210L49.236,210C46.474,210 44.236,207.763 44.236,205L44.236,202L44.236,194C44.236,191.787 42.449,190 40.236,190L32.236,190C30.024,190 28.236,191.787 28.236,194L28.236,202L28.236,205C28.236,207.763 25.999,210 23.236,210L20.236,210L16.249,210C16.061,210 15.874,209.987 15.686,209.975C15.536,209.987 15.386,210 15.236,210L13.236,210C10.474,210 8.236,207.763 8.236,205L8.236,191C8.236,190.888 8.236,190.763 8.249,190.65L8.249,181.95L4.236,181.95C1.986,181.95 0.236,180.2 0.236,177.938C0.236,176.812 0.611,175.812 1.486,174.938L33.536,147C34.411,146.125 35.411,146 36.286,146C37.161,146 38.161,146.25 38.911,146.875L70.836,174.938C71.836,175.812 72.336,176.812 72.211,177.938Z" transform="rotate(0 36.233 178)" fill="#000000" fill-opacity="0.56"/>
<path d="M1140.211,31.938C1140.211,34.188 1138.336,35.95 1136.211,35.95L1132.211,35.95L1132.299,55.975C1132.299,56.312 1132.274,56.65 1132.236,56.987L1132.236,59C1132.236,61.763 1129.999,64 1127.236,64L1125.236,64C1125.099,64 1124.961,64 1124.824,63.987C1124.649,64 1124.474,64 1124.299,64L1120.236,64L1117.236,64C1114.474,64 1112.236,61.763 1112.236,59L1112.236,56L1112.236,48C1112.236,45.787 1110.449,44 1108.236,44L1100.236,44C1098.024,44 1096.236,45.787 1096.236,48L1096.236,56L1096.236,59C1096.236,61.763 1093.999,64 1091.236,64L1088.236,64L1084.249,64C1084.061,64 1083.874,63.987 1083.686,63.975C1083.536,63.987 1083.386,64 1083.236,64L1081.236,64C1078.474,64 1076.236,61.763 1076.236,59L1076.236,45C1076.236,44.888 1076.236,44.763 1076.249,44.65L1076.249,35.95L1072.236,35.95C1069.986,35.95 1068.236,34.2 1068.236,31.938C1068.236,30.812 1068.611,29.812 1069.486,28.938L1101.536,1C1102.411,0.125 1103.411,0 1104.286,0C1105.161,0 1106.161,0.25 1106.911,0.875L1138.836,28.938C1139.836,29.812 1140.336,30.812 1140.211,31.938Z" transform="rotate(0 1104.233 32)" fill="#000000"/>
</svg>
