<svg width="1140" height="210" viewBox="0 0 1140 210" fill="none" xmlns="http://www.w3.org/2000/svg" xmlns:xlink="http://www.w3.org/1999/xlink">
<path d="M71.975,177.938C71.975,180.188 70.1,181.95 67.975,181.95L63.975,181.95L64.062,201.975C64.062,202.312 64.037,202.65 64,202.987L64,205C64,207.763 61.763,210 59,210L57,210C56.862,210 56.725,210 56.588,209.987C56.413,210 56.237,210 56.062,210L52,210L49,210C46.237,210 44,207.763 44,205L44,202L44,194C44,191.787 42.213,190 40,190L32,190C29.788,190 28,191.787 28,194L28,202L28,205C28,207.763 25.763,210 23,210L20,210L16.013,210C15.825,210 15.638,209.987 15.45,209.975C15.3,209.987 15.15,210 15,210L13,210C10.238,210 8,207.763 8,205L8,191C8,190.888 8,190.763 8.013,190.65L8.013,181.95L4,181.95C1.75,181.95 0,180.2 0,177.938C0,176.812 0.375,175.812 1.25,174.938L33.3,147C34.175,146.125 35.175,146 36.05,146C36.925,146 37.925,146.25 38.675,146.875L70.6,174.938C71.6,175.812 72.1,176.812 71.975,177.938Z" transform="rotate(0 35.997 178)" fill="#DD7A83"/>
<path d="M1139.975,31.938C1139.975,34.188 1138.1,35.95 1135.975,35.95L1131.975,35.95L1132.062,55.975C1132.062,56.312 1132.037,56.65 1132,56.987L1132,59C1132,61.763 1129.763,64 1127,64L1125,64C1124.862,64 1124.725,64 1124.588,63.987C1124.413,64 1124.237,64 1124.062,64L1120,64L1117,64C1114.237,64 1112,61.763 1112,59L1112,56L1112,48C1112,45.787 1110.213,44 1108,44L1100,44C1097.788,44 1096,45.787 1096,48L1096,56L1096,59C1096,61.763 1093.763,64 1091,64L1088,64L1084.013,64C1083.825,64 1083.638,63.987 1083.45,63.975C1083.3,63.987 1083.15,64 1083,64L1081,64C1078.238,64 1076,61.763 1076,59L1076,45C1076,44.888 1076,44.763 1076.013,44.65L1076.013,35.95L1072,35.95C1069.75,35.95 1068,34.2 1068,31.938C1068,30.812 1068.375,29.812 1069.25,28.938L1101.3,1C1102.175,0.125 1103.175,0 1104.05,0C1104.925,0 1105.925,0.25 1106.675,0.875L1138.6,28.938C1139.6,29.812 1140.1,30.812 1139.975,31.938Z" transform="rotate(0 1103.997 32)" fill="#DD7A83"/>
</svg>
