<svg width="58" height="24" viewBox="0 0 58 24" fill="none" xmlns="http://www.w3.org/2000/svg" xmlns:xlink="http://www.w3.org/1999/xlink">
<path d="M8.685,22.471C14.061,22.471 17.255,18.267 17.255,11.148C17.255,8.467 16.742,6.212 15.761,4.468C14.34,1.758 11.893,0.294 8.803,0.294C4.203,0.294 0.951,3.384 0.951,7.72C0.951,11.793 3.881,14.752 7.909,14.752C10.385,14.752 12.391,13.594 13.388,11.588L13.431,11.588C13.431,11.588 13.49,11.588 13.505,11.588C13.534,11.588 13.637,11.588 13.637,11.588C13.637,16.422 11.806,19.307 8.715,19.307C6.898,19.307 5.492,18.311 5.009,16.715L1.244,16.715C1.874,20.186 4.818,22.471 8.685,22.471ZM8.817,11.749C6.386,11.749 4.657,10.02 4.657,7.603C4.657,5.245 6.473,3.443 8.832,3.443C11.19,3.443 13.007,5.274 13.007,7.662C13.007,10.02 11.234,11.749 8.817,11.749Z" transform="rotate(-0.241 29.377 11.382)" fill="#000000"/>
<path d="M23.437,22.266C24.829,22.266 25.781,21.27 25.781,19.952C25.781,18.619 24.829,17.637 23.437,17.637C22.06,17.637 21.093,18.619 21.093,19.952C21.093,21.27 22.06,22.266 23.437,22.266ZM23.437,11.28C24.829,11.28 25.781,10.299 25.781,8.98C25.781,7.647 24.829,6.666 23.437,6.666C22.06,6.666 21.093,7.647 21.093,8.98C21.093,10.299 22.06,11.28 23.437,11.28Z" transform="rotate(-0.241 29.377 11.382)" fill="#000000"/>
<path d="M39.492,21.959L43.11,21.959L43.11,18.018L45.967,18.018L45.967,14.825L43.11,14.825L43.11,0.821L37.778,0.821C34.043,6.446 31.069,11.148 29.165,14.649L29.165,18.018L39.492,18.018L39.492,21.959ZM32.666,14.693C35.127,10.357 37.324,6.885 39.346,3.897L39.551,3.897L39.551,14.913L32.666,14.913L32.666,14.693Z" transform="rotate(-0.241 29.377 11.382)" fill="#000000"/>
<path d="M54.024,21.959L57.803,21.959L57.803,0.821L54.039,0.821L48.516,4.688L48.516,8.321L53.775,4.63L54.024,4.63L54.024,21.959Z" transform="rotate(-0.241 29.377 11.382)" fill="#000000"/>
</svg>
