<svg width="58" height="24" viewBox="0 0 58 24" fill="none" xmlns="http://www.w3.org/2000/svg" xmlns:xlink="http://www.w3.org/1999/xlink">
<path d="M8.686,22.473C14.062,22.473 17.256,18.269 17.256,11.15C17.256,8.469 16.743,6.214 15.762,4.47C14.341,1.76 11.894,0.296 8.804,0.296C4.204,0.296 0.952,3.386 0.952,7.722C0.952,11.795 3.882,14.754 7.91,14.754C10.386,14.754 12.392,13.596 13.389,11.59L13.432,11.59C13.432,11.59 13.491,11.59 13.506,11.59C13.535,11.59 13.638,11.59 13.638,11.59C13.638,16.424 11.806,19.309 8.716,19.309C6.899,19.309 5.493,18.313 5.01,16.716L1.245,16.716C1.875,20.188 4.819,22.473 8.686,22.473ZM8.818,11.751C6.387,11.751 4.658,10.022 4.658,7.605C4.658,5.247 6.474,3.445 8.833,3.445C11.191,3.445 13.008,5.276 13.008,7.664C13.008,10.022 11.235,11.751 8.818,11.751Z" transform="rotate(-0.241 29.378 11.384)" fill="#000000"/>
<path d="M23.438,22.268C24.83,22.268 25.782,21.272 25.782,19.954C25.782,18.621 24.83,17.639 23.438,17.639C22.061,17.639 21.094,18.621 21.094,19.954C21.094,21.272 22.061,22.268 23.438,22.268ZM23.438,11.282C24.83,11.282 25.782,10.3 25.782,8.982C25.782,7.649 24.83,6.668 23.438,6.668C22.061,6.668 21.094,7.649 21.094,8.982C21.094,10.3 22.061,11.282 23.438,11.282Z" transform="rotate(-0.241 29.378 11.384)" fill="#000000"/>
<path d="M39.493,21.961L43.111,21.961L43.111,18.02L45.968,18.02L45.968,14.827L43.111,14.827L43.111,0.823L37.779,0.823C34.044,6.448 31.07,11.15 29.166,14.651L29.166,18.02L39.493,18.02L39.493,21.961ZM32.667,14.695C35.128,10.359 37.325,6.887 39.347,3.899L39.552,3.899L39.552,14.915L32.667,14.915L32.667,14.695Z" transform="rotate(-0.241 29.378 11.384)" fill="#000000"/>
<path d="M54.025,21.961L57.804,21.961L57.804,0.823L54.04,0.823L48.517,4.69L48.517,8.323L53.776,4.632L54.025,4.632L54.025,21.961Z" transform="rotate(-0.241 29.378 11.384)" fill="#000000"/>
</svg>
