<svg width="128" height="126" viewBox="0 0 128 126" fill="none" xmlns="http://www.w3.org/2000/svg" xmlns:xlink="http://www.w3.org/1999/xlink">
<path d="M127.302,63C127.302,97.794 98.877,126 63.814,126C28.75,126 0.325,97.794 0.325,63C0.325,28.206 28.75,0 63.814,0C98.877,0 127.302,28.206 127.302,63Z" fill="#D9D9D9"/>
<path d="M64.821,62C69.403,62 73.797,60.209 77.037,57.021C80.277,53.833 82.097,49.509 82.097,45C82.097,40.491 80.277,36.167 77.037,32.979C73.797,29.791 69.403,28 64.821,28C60.24,28 55.845,29.791 52.606,32.979C49.366,36.167 47.546,40.491 47.546,45C47.546,49.509 49.366,53.833 52.606,57.021C55.845,60.209 60.24,62 64.821,62ZM58.653,68.375C45.359,68.375 34.589,78.973 34.589,92.055C34.589,94.234 36.384,96 38.597,96L91.045,96C93.259,96 95.054,94.234 95.054,92.055C95.054,78.973 84.284,68.375 70.989,68.375L58.653,68.375Z" fill="#FFFFFF"/>
</svg>
