<svg width="128" height="126" viewBox="0 0 128 126" fill="none" xmlns="http://www.w3.org/2000/svg" xmlns:xlink="http://www.w3.org/1999/xlink">
<path d="M127.256,63C127.256,97.794 98.831,126 63.768,126C28.704,126 0.279,97.794 0.279,63C0.279,28.206 28.704,0 63.768,0C98.831,0 127.256,28.206 127.256,63Z" fill="#D9D9D9"/>
<path d="M64.776,62C69.357,62 73.752,60.209 76.991,57.021C80.231,53.833 82.051,49.509 82.051,45C82.051,40.491 80.231,36.167 76.991,32.979C73.752,29.791 69.357,28 64.776,28C60.194,28 55.8,29.791 52.56,32.979C49.32,36.167 47.5,40.491 47.5,45C47.5,49.509 49.32,53.833 52.56,57.021C55.8,60.209 60.194,62 64.776,62ZM58.608,68.375C45.313,68.375 34.543,78.973 34.543,92.055C34.543,94.234 36.338,96 38.551,96L91,96C93.213,96 95.008,94.234 95.008,92.055C95.008,78.973 84.238,68.375 70.944,68.375L58.608,68.375Z" fill="#FFFFFF"/>
</svg>
