<svg width="1118" height="206" viewBox="0 0 1118 206" fill="none" xmlns="http://www.w3.org/2000/svg" xmlns:xlink="http://www.w3.org/1999/xlink">
<path d="M24.638,151.263C25.338,149.163 24.2,146.901 22.113,146.201C20.025,145.501 17.75,146.638 17.05,148.726L1.05,196.726C0.35,198.826 1.488,201.088 3.575,201.788C5.663,202.488 7.938,201.351 8.638,199.263L24.638,151.263ZM33.5,146.051C31.325,145.688 29.263,147.163 28.9,149.338L20.9,197.338C20.538,199.513 22.013,201.576 24.188,201.938C26.363,202.301 28.425,200.826 28.788,198.651L36.788,150.651C37.15,148.476 35.675,146.413 33.5,146.051ZM44.838,146.001C42.625,146.001 40.838,147.788 40.838,150.001L40.838,198.001C40.838,200.213 42.625,202.001 44.838,202.001C47.05,202.001 48.838,200.213 48.838,198.001L48.838,150.001C48.838,147.788 47.05,146.001 44.838,146.001Z" transform="rotate(0 24.841 173.997)" fill="#000000" fill-opacity="0.59"/>
<path d="M1092.638,5.261C1093.338,3.161 1092.2,0.899 1090.113,0.199C1088.025,-0.501 1085.75,0.636 1085.05,2.724L1069.05,50.724C1068.35,52.824 1069.488,55.086 1071.575,55.786C1073.663,56.486 1075.938,55.349 1076.638,53.261L1092.638,5.261ZM1101.5,0.049C1099.325,-0.314 1097.263,1.161 1096.9,3.336L1088.9,51.336C1088.538,53.511 1090.013,55.574 1092.188,55.936C1094.363,56.299 1096.425,54.824 1096.788,52.649L1104.788,4.649C1105.15,2.474 1103.675,0.411 1101.5,0.049ZM1112.838,-0.001C1110.625,-0.001 1108.838,1.786 1108.838,3.999L1108.838,51.999C1108.838,54.211 1110.625,55.999 1112.838,55.999C1115.05,55.999 1116.838,54.211 1116.838,51.999L1116.838,3.999C1116.838,1.786 1115.05,-0.001 1112.838,-0.001Z" transform="rotate(0 1092.841 27.995)" fill="#000000" fill-opacity="0.59"/>
</svg>
