<svg width="1116" height="206" viewBox="0 0 1116 206" fill="none" xmlns="http://www.w3.org/2000/svg" xmlns:xlink="http://www.w3.org/1999/xlink">
<path d="M23.8,151.262C24.5,149.162 23.362,146.9 21.275,146.2C19.187,145.5 16.912,146.637 16.212,148.725L0.212,196.725C-0.488,198.825 0.65,201.087 2.737,201.787C4.825,202.487 7.1,201.35 7.8,199.262L23.8,151.262ZM32.662,146.05C30.487,145.687 28.425,147.162 28.062,149.337L20.062,197.337C19.7,199.512 21.175,201.575 23.35,201.937C25.525,202.3 27.587,200.825 27.95,198.65L35.95,150.65C36.312,148.475 34.837,146.412 32.662,146.05ZM44,146C41.787,146 40,147.787 40,150L40,198C40,200.212 41.787,202 44,202C46.212,202 48,200.212 48,198L48,150C48,147.787 46.212,146 44,146Z" transform="rotate(0 24.003 173.996)" fill="#000000" fill-opacity="0.59"/>
<path d="M1091.8,5.262C1092.5,3.162 1091.362,0.9 1089.275,0.2C1087.187,-0.5 1084.912,0.637 1084.212,2.725L1068.212,50.725C1067.512,52.825 1068.65,55.087 1070.737,55.787C1072.825,56.487 1075.1,55.35 1075.8,53.262L1091.8,5.262ZM1100.662,0.05C1098.487,-0.313 1096.425,1.162 1096.062,3.337L1088.062,51.337C1087.7,53.512 1089.175,55.575 1091.35,55.937C1093.525,56.3 1095.587,54.825 1095.95,52.65L1103.95,4.65C1104.312,2.475 1102.837,0.412 1100.662,0.05ZM1112,0C1109.787,0 1108,1.787 1108,4L1108,52C1108,54.212 1109.787,56 1112,56C1114.212,56 1116,54.212 1116,52L1116,4C1116,1.787 1114.212,0 1112,0Z" transform="rotate(0 1092.003 27.996)" fill="#000000" fill-opacity="0.59"/>
</svg>
