<svg width="34" height="22" viewBox="0 0 34 22" fill="none" xmlns="http://www.w3.org/2000/svg" xmlns:xlink="http://www.w3.org/1999/xlink">
<path d="M31.429,-0.358L29.429,-0.358C28.324,-0.358 27.429,0.537 27.429,1.642L27.429,18.975C27.429,20.08 28.324,20.975 29.429,20.975L31.429,20.975C32.533,20.975 33.429,20.08 33.429,18.975L33.429,1.642C33.429,0.537 32.533,-0.358 31.429,-0.358ZM20.095,4.309L22.095,4.309C23.2,4.309 24.095,5.204 24.095,6.309L24.095,18.975C24.095,20.08 23.2,20.975 22.095,20.975L20.095,20.975C18.991,20.975 18.095,20.08 18.095,18.975L18.095,6.309C18.095,5.204 18.991,4.309 20.095,4.309ZM12.762,8.975L10.762,8.975C9.657,8.975 8.762,9.871 8.762,10.975L8.762,18.975C8.762,20.08 9.657,20.975 10.762,20.975L12.762,20.975C13.867,20.975 14.762,20.08 14.762,18.975L14.762,10.975C14.762,9.871 13.867,8.975 12.762,8.975ZM3.429,12.975L1.429,12.975C0.324,12.975 -0.571,13.871 -0.571,14.975L-0.571,18.975C-0.571,20.08 0.324,20.975 1.429,20.975L3.429,20.975C4.533,20.975 5.429,20.08 5.429,18.975L5.429,14.975C5.429,13.871 4.533,12.975 3.429,12.975Z" clip-rule="evenodd" fill-rule="evenodd" transform="rotate(-0.241 16.429 10.309)" fill="#000000"/>
</svg>
