<svg width="34" height="22" viewBox="0 0 34 22" fill="none" xmlns="http://www.w3.org/2000/svg" xmlns:xlink="http://www.w3.org/1999/xlink">
<path d="M31.429,-0.36L29.429,-0.36C28.324,-0.36 27.429,0.535 27.429,1.64L27.429,18.973C27.429,20.078 28.324,20.973 29.429,20.973L31.429,20.973C32.533,20.973 33.429,20.078 33.429,18.973L33.429,1.64C33.429,0.535 32.533,-0.36 31.429,-0.36ZM20.095,4.307L22.095,4.307C23.2,4.307 24.095,5.202 24.095,6.307L24.095,18.973C24.095,20.078 23.2,20.973 22.095,20.973L20.095,20.973C18.991,20.973 18.095,20.078 18.095,18.973L18.095,6.307C18.095,5.202 18.991,4.307 20.095,4.307ZM12.762,8.973L10.762,8.973C9.657,8.973 8.762,9.869 8.762,10.973L8.762,18.973C8.762,20.078 9.657,20.973 10.762,20.973L12.762,20.973C13.867,20.973 14.762,20.078 14.762,18.973L14.762,10.973C14.762,9.869 13.867,8.973 12.762,8.973ZM3.429,12.973L1.429,12.973C0.324,12.973 -0.571,13.869 -0.571,14.973L-0.571,18.973C-0.571,20.078 0.324,20.973 1.429,20.973L3.429,20.973C4.533,20.973 5.429,20.078 5.429,18.973L5.429,14.973C5.429,13.869 4.533,12.973 3.429,12.973Z" clip-rule="evenodd" fill-rule="evenodd" transform="rotate(-0.241 16.429 10.307)" fill="#000000"/>
</svg>
