<svg width="46" height="44" viewBox="0 0 46 44" fill="none" xmlns="http://www.w3.org/2000/svg" xmlns:xlink="http://www.w3.org/1999/xlink">
<path d="M23.002,40.848C35.705,40.848 46,31.706 46,20.424C46,9.142 35.705,0 23.002,0C10.3,0 0.005,9.142 0.005,20.424C0.005,24.852 1.595,28.947 4.29,32.295C4.119,34.701 3.266,36.842 2.367,38.472C1.873,39.375 1.37,40.102 1.002,40.593C0.813,40.838 0.669,41.025 0.562,41.152C0.508,41.211 0.472,41.26 0.445,41.29L0.418,41.319C0.005,41.771 -0.112,42.439 0.112,43.028C0.337,43.617 0.858,44 1.442,44C4.02,44 6.617,43.126 8.773,42.105C10.83,41.123 12.582,39.954 13.651,39.1C16.507,40.229 19.669,40.858 23.002,40.858L23.002,40.848ZM11.503,17.282C12.266,17.282 12.997,17.613 13.536,18.202C14.075,18.791 14.378,19.591 14.378,20.424C14.378,21.257 14.075,22.057 13.536,22.646C12.997,23.235 12.266,23.566 11.503,23.566C10.741,23.566 10.01,23.235 9.471,22.646C8.932,22.057 8.629,21.257 8.629,20.424C8.629,19.591 8.932,18.791 9.471,18.202C10.01,17.613 10.741,17.282 11.503,17.282ZM23.002,17.282C23.765,17.282 24.496,17.613 25.035,18.202C25.574,18.791 25.877,19.591 25.877,20.424C25.877,21.257 25.574,22.057 25.035,22.646C24.496,23.235 23.765,23.566 23.002,23.566C22.24,23.566 21.509,23.235 20.97,22.646C20.43,22.057 20.128,21.257 20.128,20.424C20.128,19.591 20.43,18.791 20.97,18.202C21.509,17.613 22.24,17.282 23.002,17.282ZM31.626,20.424C31.626,19.591 31.929,18.791 32.468,18.202C33.008,17.613 33.739,17.282 34.501,17.282C35.264,17.282 35.995,17.613 36.534,18.202C37.073,18.791 37.376,19.591 37.376,20.424C37.376,21.257 37.073,22.057 36.534,22.646C35.995,23.235 35.264,23.566 34.501,23.566C33.739,23.566 33.008,23.235 32.468,22.646C31.929,22.057 31.626,21.257 31.626,20.424Z" fill="#3E3B3B"/>
</svg>
