<svg width="72" height="58" viewBox="0 0 72 58" fill="none" xmlns="http://www.w3.org/2000/svg" xmlns:xlink="http://www.w3.org/1999/xlink">
<path d="M5.95,31.551L28.538,52.638C29.475,53.513 30.712,54.001 32,54.001C33.287,54.001 34.525,53.513 35.463,52.638L35.787,52.338C33.4,48.826 32,44.576 32,40.001C32,27.851 41.85,18.001 54,18.001C57.537,18.001 60.875,18.838 63.838,20.313C63.95,19.501 64,18.688 64,17.863L64,17.138C64,8.401 57.688,0.951 49.075,-0.487C43.375,-1.437 37.575,0.426 33.5,4.501L32,6.001L30.5,4.501C26.425,0.426 20.625,-1.437 14.925,-0.487C6.313,0.951 0,8.401 0,17.138L0,17.863C0,23.051 2.15,28.013 5.95,31.551ZM72,40.001C72,35.227 70.104,30.648 66.728,27.273C63.352,23.897 58.774,22.001 54,22.001C49.226,22.001 44.648,23.897 41.272,27.273C37.896,30.648 36,35.227 36,40.001C36,44.775 37.896,49.353 41.272,52.729C44.648,56.104 49.226,58.001 54,58.001C58.774,58.001 63.352,56.104 66.728,52.729C70.104,49.353 72,44.775 72,40.001ZM62.412,34.588C63.188,35.363 63.188,36.638 62.412,37.413L53.412,46.413C52.637,47.188 51.363,47.188 50.588,46.413L45.588,41.413C44.812,40.638 44.812,39.363 45.588,38.588C46.363,37.813 47.637,37.813 48.412,38.588L52,42.176L59.588,34.588C60.363,33.813 61.637,33.813 62.412,34.588Z" fill="#000000" fill-opacity="0.57"/>
</svg>
