<svg width="28" height="28" viewBox="0 0 28 28" fill="none" xmlns="http://www.w3.org/2000/svg" xmlns:xlink="http://www.w3.org/1999/xlink">
<path d="M14,28C17.713,28 21.274,26.525 23.899,23.899C26.525,21.274 28,17.713 28,14C28,10.287 26.525,6.726 23.899,4.101C21.274,1.475 17.713,0 14,0C10.287,0 6.726,1.475 4.101,4.101C1.475,6.726 0,10.287 0,14C0,17.713 1.475,21.274 4.101,23.899C6.726,26.525 10.287,28 14,28ZM20.18,11.43L13.18,18.43C12.666,18.944 11.834,18.944 11.326,18.43L7.826,14.93C7.312,14.416 7.312,13.584 7.826,13.076C8.34,12.567 9.171,12.562 9.68,13.076L12.25,15.646L18.32,9.57C18.834,9.056 19.666,9.056 20.174,9.57C20.683,10.084 20.688,10.916 20.174,11.424L20.18,11.43Z" fill="#E1D9D9" fill-opacity="0.94"/>
</svg>
