<svg width="334" height="224" viewBox="0 0 334 224" fill="none" xmlns="http://www.w3.org/2000/svg" xmlns:xlink="http://www.w3.org/1999/xlink">
<g filter="url(#filter294_3)">
<path d="M155.866,172.566C155.866,200.226 133.426,222.666 105.767,222.666C83.917,222.666 65.339,208.68 58.485,189.197C57.545,189.232 56.606,189.266 55.667,189.266C24.911,189.266 0,164.356 0,133.6C0,112.968 11.203,94.981 27.903,85.344C24.354,80.056 22.267,73.654 22.267,66.8C22.267,48.36 37.227,33.4 55.667,33.4C59.911,33.4 63.982,34.2 67.704,35.627C71.81,15.308 89.797,0 111.333,0C135.931,0 155.866,19.936 155.866,44.533L155.866,172.566ZM178.134,172.566C178.134,200.226 200.574,222.666 228.234,222.666C250.082,222.666 268.662,208.68 275.516,189.197C276.454,189.232 277.394,189.266 278.334,189.266C309.09,189.266 334,164.356 334,133.6C334,112.968 322.798,94.981 306.098,85.344C309.646,80.056 311.734,73.654 311.734,66.8C311.734,48.36 296.774,33.4 278.334,33.4C274.09,33.4 270.018,34.2 266.296,35.627C262.19,15.308 244.204,0 222.668,0C198.069,0 178.134,19.936 178.134,44.533L178.134,172.566Z" clip-rule="evenodd" fill-rule="evenodd" fill="#FFFFFF"/>
</g>
<defs>
<filter id="filter294_3" x="-2" y="-2" width="171.000092" height="117.333183" filterUnits="userSpaceOnUse" color-interpolation-filters="sRGB">
<feFlood flood-opacity="0" result="BackgroundImageFix"/>
<feColorMatrix in="SourceAlpha" type="matrix" values="0 0 0 0 0 0 0 0 0 0 0 0 0 0 0 0 0 0 127 0" result="hardAlpha"/>
<feMorphology radius="0" operator="dilate" in="SourceAlpha" result="0dropshadow"/>
<feOffset dx="0" dy="4"/>
<feGaussianBlur stdDeviation="1"/>
<feComposite in2="hardAlpha" operator="out"/>
<feColorMatrix type="matrix" values="0 0 0 0 0 0 0 0 0 0 0 0 0 0 0 0 0 0 0.25 0"/>
<feBlend mode="normal" in2="BackgroundImageFix" result="0dropshadow"/>
<feBlend mode="normal" in="SourceGraphic" in2="0dropshadow" result="shape"/>
</filter>
</defs>
</svg>
