<svg width="1124" height="210" viewBox="0 0 1124 210" fill="none" xmlns="http://www.w3.org/2000/svg" xmlns:xlink="http://www.w3.org/1999/xlink">
<path d="M27.117,178C31.361,178 35.43,176.314 38.431,173.314C41.431,170.313 43.117,166.243 43.117,162C43.117,157.757 41.431,153.687 38.431,150.686C35.43,147.686 31.361,146 27.117,146C22.874,146 18.804,147.686 15.803,150.686C12.803,153.687 11.117,157.757 11.117,162C11.117,166.243 12.803,170.313 15.803,173.314C18.804,176.314 22.874,178 27.117,178ZM21.405,184C9.092,184 -0.883,193.975 -0.883,206.287C-0.883,208.337 0.78,210 2.83,210L51.405,210C53.455,210 55.117,208.337 55.117,206.287C55.117,193.975 45.142,184 32.83,184L21.405,184Z" transform="rotate(0 27.117 178)" fill="#000000" fill-opacity="0.56"/>
<path d="M1095.117,32C1099.361,32 1103.43,30.314 1106.431,27.314C1109.431,24.313 1111.117,20.243 1111.117,16C1111.117,11.757 1109.431,7.687 1106.431,4.686C1103.43,1.686 1099.361,0 1095.117,0C1090.874,0 1086.804,1.686 1083.803,4.686C1080.803,7.687 1079.117,11.757 1079.117,16C1079.117,20.243 1080.803,24.313 1083.803,27.314C1086.804,30.314 1090.874,32 1095.117,32ZM1089.405,38C1077.092,38 1067.117,47.975 1067.117,60.287C1067.117,62.337 1068.78,64 1070.83,64L1119.405,64C1121.455,64 1123.117,62.337 1123.117,60.287C1123.117,47.975 1113.142,38 1100.83,38L1089.405,38Z" transform="rotate(0 1095.117 32)" fill="#000000" fill-opacity="0.56"/>
</svg>
