<svg width="240" height="232" viewBox="0 0 240 232" fill="none" xmlns="http://www.w3.org/2000/svg" xmlns:xlink="http://www.w3.org/1999/xlink">
<path d="M47.891,154.051L47.891,30.81C47.891,13.816 62.209,0 79.819,0L207.528,0C225.138,0 239.456,13.816 239.456,30.81L239.456,125.889C239.456,134.073 236.114,141.92 230.126,147.697L200.944,175.859C194.957,181.636 186.825,184.862 178.345,184.862L79.819,184.862C62.209,184.862 47.891,171.045 47.891,154.051ZM135.692,46.215C131.302,46.215 127.71,49.682 127.71,53.918L127.71,77.026L103.764,77.026C99.374,77.026 95.782,80.492 95.782,84.728L95.782,100.133C95.782,104.37 99.374,107.836 103.764,107.836L127.71,107.836L127.71,130.944C127.71,135.18 131.302,138.646 135.692,138.646L151.655,138.646C156.045,138.646 159.637,135.18 159.637,130.944L159.637,107.836L183.583,107.836C187.973,107.836 191.565,104.37 191.565,100.133L191.565,84.728C191.565,80.492 187.973,77.026 183.583,77.026L159.637,77.026L159.637,53.918C159.637,49.682 156.045,46.215 151.655,46.215L135.692,46.215ZM147.664,207.97C154.299,207.97 159.637,213.12 159.637,219.524C159.637,225.926 154.299,231.078 147.664,231.078L67.846,231.078C30.381,231.078 0,201.76 0,165.605L0,57.769C0,51.367 5.338,46.215 11.973,46.215C18.608,46.215 23.946,51.367 23.946,57.769L23.946,165.605C23.946,189.002 43.601,207.97 67.846,207.97L147.664,207.97Z" fill="#FFFFFF"/>
</svg>
