<svg width="22" height="28" viewBox="0 0 22 28" fill="none" xmlns="http://www.w3.org/2000/svg" xmlns:xlink="http://www.w3.org/1999/xlink">
<path d="M1.243,1.75C1.243,0.782 2.069,0 3.09,0L17.871,0C18.893,0 19.718,0.782 19.718,1.75C19.718,2.718 18.893,3.5 17.871,3.5L16.168,3.5L16.826,11.605C18.945,12.693 20.619,14.514 21.416,16.784L21.474,16.948C21.664,17.484 21.566,18.069 21.219,18.523C20.873,18.977 20.313,19.25 19.718,19.25L1.243,19.25C0.648,19.25 0.094,18.982 -0.258,18.523C-0.61,18.063 -0.703,17.478 -0.512,16.948L-0.455,16.784C0.342,14.514 2.017,12.693 4.135,11.605L4.794,3.5L3.09,3.5C2.069,3.5 1.243,2.718 1.243,1.75ZM8.633,21L12.328,21L12.328,26.25C12.328,27.218 11.503,28 10.481,28C9.459,28 8.633,27.218 8.633,26.25L8.633,21Z" fill="#FFFFFF"/>
</svg>
