<svg width="278" height="254" viewBox="0 0 278 254" fill="none" xmlns="http://www.w3.org/2000/svg" xmlns:xlink="http://www.w3.org/1999/xlink">
<path d="M-1,29.095L216,29.095L216,-0.659L-1,-0.659L-1,29.095ZM200.5,252.249C179.058,252.249 160.781,244.997 145.669,230.493C130.556,215.987 123,198.445 123,177.865C123,157.285 130.556,139.743 145.669,125.238C160.781,110.733 179.058,103.48 200.5,103.48C221.942,103.48 240.218,110.733 255.332,125.238C270.444,139.743 278,157.285 278,177.865C278,198.445 270.444,215.987 255.332,230.493C240.218,244.997 221.942,252.249 200.5,252.249ZM226.462,213.197L237.312,202.783L208.25,174.889L208.25,133.234L192.75,133.234L192.75,180.841L226.462,213.197Z" fill="#E8EAED"/>
</svg>
