<svg width="222" height="164" viewBox="0 0 222 164" fill="none" xmlns="http://www.w3.org/2000/svg" xmlns:xlink="http://www.w3.org/1999/xlink">
<path d="M20.735,0C9.288,0 0,9.075 0,20.261C0,26.634 3.067,32.628 8.294,36.469L102.294,105.356C107.219,108.944 113.958,108.944 118.883,105.356L212.882,36.469C218.11,32.628 221.176,26.634 221.176,20.261C221.176,9.075 211.89,0 200.442,0L20.735,0ZM0,47.275L0,135.072C0,149.972 12.398,162.086 27.647,162.086L193.53,162.086C208.778,162.086 221.176,149.972 221.176,135.072L221.176,47.275L127.177,116.162C117.327,123.379 103.849,123.379 94,116.162L0,47.275Z" fill="#FFFFFF"/>
</svg>
