<svg width="52" height="58" viewBox="0 0 52 58" fill="none" xmlns="http://www.w3.org/2000/svg" xmlns:xlink="http://www.w3.org/1999/xlink">
<path d="M42.152,30.443C42.126,25.674 44.302,22.074 48.708,19.423C46.243,15.927 42.519,14.004 37.602,13.627C32.947,13.263 27.86,16.317 25.998,16.317C24.031,16.317 19.521,13.757 15.981,13.757C8.664,13.874 0.889,19.54 0.889,31.067C0.889,34.472 1.518,37.989 2.777,41.62C4.455,46.389 10.513,58.085 16.833,57.89C20.137,57.812 22.471,55.564 26.772,55.564C30.941,55.564 33.105,57.89 36.789,57.89C43.162,57.799 48.642,47.169 50.242,42.386C41.693,38.397 42.152,30.69 42.152,30.443ZM34.731,9.104C38.31,4.894 37.982,1.06 37.877,-0.318C34.718,-0.136 31.059,1.814 28.974,4.218C26.68,6.791 25.329,9.975 25.618,13.562C29.04,13.822 32.161,12.08 34.731,9.104Z" fill="#565656"/>
</svg>
