<svg width="60" height="68" viewBox="0 0 60 68" fill="none" xmlns="http://www.w3.org/2000/svg" xmlns:xlink="http://www.w3.org/1999/xlink">
<path d="M30,34C34.547,34 38.907,32.209 42.122,29.021C45.337,25.833 47.143,21.509 47.143,17C47.143,12.491 45.337,8.167 42.122,4.979C38.907,1.791 34.547,0 30,0C25.453,0 21.093,1.791 17.878,4.979C14.663,8.167 12.857,12.491 12.857,17C12.857,21.509 14.663,25.833 17.878,29.021C21.093,32.209 25.453,34 30,34ZM23.879,40.375C10.688,40.375 0,50.973 0,64.055C0,66.234 1.781,68 3.978,68L56.022,68C58.219,68 60,66.234 60,64.055C60,50.973 49.312,40.375 36.121,40.375L23.879,40.375Z" fill="#FFFFFF"/>
</svg>
