<svg width="26" height="36" viewBox="0 0 26 36" fill="none" xmlns="http://www.w3.org/2000/svg" xmlns:xlink="http://www.w3.org/1999/xlink">
<path d="M5,10.5C5,7.742 7.512,5.5 10.6,5.5L13.4,5.5C16.489,5.5 19,7.742 19,10.5L19,10.781C19,12.484 18.029,14.07 16.428,14.984L12.735,17.102C10.53,18.367 9.2,20.547 9.2,22.883L9.2,23C9.2,24.383 10.452,25.5 12,25.5C13.549,25.5 14.8,24.383 14.8,23L14.8,22.891C14.8,22.25 15.168,21.656 15.763,21.312L19.455,19.195C22.658,17.352 24.6,14.188 24.6,10.781L24.6,10.5C24.6,4.977 19.587,0.5 13.4,0.5L10.6,0.5C4.414,0.5 -0.6,4.977 -0.6,10.5C-0.6,11.883 0.652,13 2.2,13C3.749,13 5,11.883 5,10.5ZM12,35.5C12.929,35.5 13.819,35.171 14.475,34.585C15.132,33.999 15.5,33.204 15.5,32.375C15.5,31.546 15.132,30.751 14.475,30.165C13.819,29.579 12.929,29.25 12,29.25C11.072,29.25 10.182,29.579 9.526,30.165C8.869,30.751 8.5,31.546 8.5,32.375C8.5,33.204 8.869,33.999 9.526,34.585C10.182,35.171 11.072,35.5 12,35.5Z" fill="#FFFFFF"/>
</svg>
