<svg width="50" height="52" viewBox="0 0 50 52" fill="none" xmlns="http://www.w3.org/2000/svg" xmlns:xlink="http://www.w3.org/1999/xlink">
<path d="M40.625,20.312C40.625,24.795 39.17,28.936 36.719,32.295L49.082,44.668C50.303,45.889 50.303,47.871 49.082,49.092C47.861,50.312 45.879,50.312 44.658,49.092L32.295,36.719C28.936,39.18 24.795,40.625 20.312,40.625C9.092,40.625 0,31.533 0,20.312C0,9.092 9.092,0 20.312,0C31.533,0 40.625,9.092 40.625,20.312ZM20.312,34.375C22.159,34.375 23.988,34.011 25.694,33.305C27.4,32.598 28.95,31.562 30.256,30.256C31.562,28.95 32.598,27.4 33.305,25.694C34.011,23.988 34.375,22.159 34.375,20.312C34.375,18.466 34.011,16.637 33.305,14.931C32.598,13.225 31.562,11.675 30.256,10.369C28.95,9.063 27.4,8.027 25.694,7.32C23.988,6.614 22.159,6.25 20.312,6.25C18.466,6.25 16.637,6.614 14.931,7.32C13.225,8.027 11.675,9.063 10.369,10.369C9.063,11.675 8.027,13.225 7.32,14.931C6.614,16.637 6.25,18.466 6.25,20.312C6.25,22.159 6.614,23.988 7.32,25.694C8.027,27.4 9.063,28.95 10.369,30.256C11.675,31.562 13.225,32.598 14.931,33.305C16.637,34.011 18.466,34.375 20.312,34.375Z" fill="#5E4E9E"/>
</svg>
