<svg width="48" height="42" viewBox="0 0 48 42" fill="none" xmlns="http://www.w3.org/2000/svg" xmlns:xlink="http://www.w3.org/1999/xlink">
<path d="M26.571,3.813C26.571,2.084 24.975,0.688 22.999,0.688C21.024,0.688 19.428,2.084 19.428,3.813L19.428,17.875L3.357,17.875C1.381,17.875 -0.215,19.271 -0.215,21C-0.215,22.729 1.381,24.125 3.357,24.125L19.428,24.125L19.428,38.188C19.428,39.916 21.024,41.313 22.999,41.313C24.975,41.313 26.571,39.916 26.571,38.188L26.571,24.125L42.642,24.125C44.618,24.125 46.214,22.729 46.214,21C46.214,19.271 44.618,17.875 42.642,17.875L26.571,17.875L26.571,3.813Z" fill="#5E4E9E"/>
</svg>
