<svg width="240" height="232" viewBox="0 0 240 232" fill="none" xmlns="http://www.w3.org/2000/svg" xmlns:xlink="http://www.w3.org/1999/xlink">
<path d="M85.52,24.758C85.52,11.09 97.012,0 111.176,0L128.28,0C142.444,0 153.936,11.09 153.936,24.758L153.936,206.318C153.936,219.988 142.444,231.078 128.28,231.078L111.176,231.078C97.012,231.078 85.52,219.988 85.52,206.318L85.52,24.758ZM0,123.791C0,110.123 11.492,99.033 25.656,99.033L42.76,99.033C56.924,99.033 68.416,110.123 68.416,123.791L68.416,206.318C68.416,219.988 56.924,231.078 42.76,231.078L25.656,231.078C11.492,231.078 0,219.988 0,206.318L0,123.791ZM196.696,33.011L213.8,33.011C227.964,33.011 239.456,44.101 239.456,57.769L239.456,206.318C239.456,219.988 227.964,231.078 213.8,231.078L196.696,231.078C182.532,231.078 171.04,219.988 171.04,206.318L171.04,57.769C171.04,44.101 182.532,33.011 196.696,33.011Z" fill="#FFFFFF"/>
</svg>
