<svg width="56" height="50" viewBox="0 0 56 50" fill="none" xmlns="http://www.w3.org/2000/svg" xmlns:xlink="http://www.w3.org/1999/xlink">
<path d="M3.5,-0.5L52.5,-0.5C54.436,-0.5 56,1.064 56,3L56,6.5C56,8.436 54.436,10 52.5,10L3.5,10C1.564,10 0,8.436 0,6.5L0,3C0,1.064 1.564,-0.5 3.5,-0.5ZM3.5,13.5L52.5,13.5L52.5,41.5C52.5,45.361 49.361,48.5 45.5,48.5L10.5,48.5C6.639,48.5 3.5,45.361 3.5,41.5L3.5,13.5ZM17.5,22.25C17.5,23.212 18.288,24 19.25,24L36.75,24C37.713,24 38.5,23.212 38.5,22.25C38.5,21.288 37.713,20.5 36.75,20.5L19.25,20.5C18.288,20.5 17.5,21.288 17.5,22.25Z" fill="#5E4E9E"/>
</svg>
