<svg width="36" height="34" viewBox="0 0 36 34" fill="none" xmlns="http://www.w3.org/2000/svg" xmlns:xlink="http://www.w3.org/1999/xlink">
<path d="M17.398,29.251C21.803,26.14 25.071,23.313 27.202,20.772C29.332,18.23 30.398,15.973 30.398,14.001C30.398,10.973 29.143,8.494 26.633,6.563C24.123,4.633 21.045,3.667 17.398,3.667C13.751,3.667 10.672,4.633 8.162,6.563C5.653,8.494 4.398,10.973 4.398,14.001C4.398,15.973 5.463,18.23 7.594,20.772C9.724,23.313 12.992,26.14 17.398,29.251ZM17.398,32.542C16.892,32.542 16.387,32.473 15.881,32.334C15.376,32.195 14.924,31.987 14.527,31.709C12.18,30.042 10.103,28.417 8.298,26.834C6.492,25.251 4.985,23.716 3.775,22.23C2.565,20.744 1.644,19.313 1.012,17.938C0.38,16.563 0.064,15.251 0.064,14.001C0.064,9.834 1.807,6.515 5.292,4.042C8.776,1.57 12.812,0.334 17.398,0.334C21.984,0.334 26.019,1.57 29.504,4.042C32.989,6.515 34.731,9.834 34.731,14.001C34.731,15.251 34.415,16.563 33.783,17.938C33.151,19.313 32.23,20.744 31.021,22.23C29.811,23.716 28.303,25.251 26.498,26.834C24.692,28.417 22.616,30.042 20.269,31.709C19.871,31.987 19.42,32.195 18.914,32.334C18.409,32.473 17.903,32.542 17.398,32.542ZM17.398,22.001C18.914,22.001 20.35,21.765 21.704,21.292C23.058,20.82 24.259,20.153 25.306,19.292C25.487,19.153 25.622,18.994 25.712,18.813C25.803,18.633 25.848,18.445 25.848,18.251C25.848,17.945 25.748,17.667 25.55,17.417C25.351,17.167 25.089,16.959 24.764,16.792C23.609,16.32 22.417,15.959 21.189,15.709C19.962,15.459 18.698,15.334 17.398,15.334C16.098,15.334 14.834,15.459 13.606,15.709C12.378,15.959 11.187,16.32 10.031,16.792C9.706,16.931 9.453,17.126 9.273,17.376C9.092,17.626 9.002,17.903 9.002,18.209C9.002,18.403 9.038,18.591 9.11,18.771C9.183,18.952 9.309,19.126 9.489,19.292C10.537,20.153 11.737,20.82 13.092,21.292C14.446,21.765 15.881,22.001 17.398,22.001ZM17.398,13.667C18.589,13.667 19.61,13.341 20.458,12.688C21.307,12.035 21.731,11.251 21.731,10.334C21.731,9.417 21.307,8.633 20.458,7.98C19.61,7.327 18.589,7.001 17.398,7.001C16.206,7.001 15.186,7.327 14.337,7.98C13.489,8.633 13.064,9.417 13.064,10.334C13.064,11.251 13.489,12.035 14.337,12.688C15.186,13.341 16.206,13.667 17.398,13.667Z" fill="#000000" fill-opacity="0.89"/>
</svg>
