<svg width="50" height="50" viewBox="0 0 50 50" fill="none" xmlns="http://www.w3.org/2000/svg" xmlns:xlink="http://www.w3.org/1999/xlink">
<path d="M49.111,25.539C49.111,39.629 39.311,49.657 24.839,49.657C10.963,49.657 -0.242,38.624 -0.242,24.961C-0.242,11.299 10.963,0.266 24.839,0.266C31.595,0.266 37.279,2.706 41.658,6.729L34.831,13.191C25.901,4.707 9.295,11.08 9.295,24.961C9.295,33.575 16.283,40.555 24.839,40.555C34.77,40.555 38.492,33.545 39.079,29.91L24.839,29.91L24.839,21.417L48.717,21.417C48.949,22.681 49.111,23.896 49.111,25.539Z" fill="#565656"/>
</svg>
