<svg width="18" height="18" viewBox="0 0 18 18" fill="none" xmlns="http://www.w3.org/2000/svg" xmlns:xlink="http://www.w3.org/1999/xlink">
<path d="M13.541,1.67C14.03,1.181 14.03,0.387 13.541,-0.102C13.052,-0.591 12.257,-0.591 11.768,-0.102L6.395,5.274L4.149,3.028C3.66,2.539 2.865,2.539 2.376,3.028C1.887,3.517 1.887,4.311 2.376,4.8L5.507,7.93C5.996,8.42 6.79,8.42 7.28,7.93L13.541,1.67ZM17.298,6.678C17.787,6.189 17.787,5.395 17.298,4.906C16.809,4.417 16.014,4.417 15.525,4.906L6.395,14.038L2.27,9.918C1.781,9.429 0.987,9.429 0.498,9.918C0.009,10.407 0.009,11.201 0.498,11.69L5.507,16.698C5.996,17.187 6.79,17.187 7.28,16.698L17.298,6.682L17.298,6.678Z" fill="#09C4FF"/>
</svg>
