<svg width="20" height="20" viewBox="0 0 20 20" fill="none" xmlns="http://www.w3.org/2000/svg" xmlns:xlink="http://www.w3.org/1999/xlink">
<path d="M15.296,2.44C15.854,1.882 15.854,0.976 15.296,0.418C14.738,-0.139 13.832,-0.139 13.274,0.418L7.145,6.55L4.583,3.989C4.025,3.431 3.119,3.431 2.561,3.989C2.003,4.546 2.003,5.452 2.561,6.01L6.132,9.581C6.69,10.138 7.596,10.138 8.154,9.581L15.296,2.44ZM19.582,8.152C20.139,7.595 20.139,6.689 19.582,6.131C19.024,5.573 18.117,5.573 17.559,6.131L7.145,16.547L2.441,11.848C1.883,11.29 0.976,11.29 0.418,11.848C-0.139,12.405 -0.139,13.311 0.418,13.869L6.132,19.582C6.69,20.139 7.596,20.139 8.154,19.582L19.582,8.157L19.582,8.152Z" fill="#979797"/>
</svg>
