<svg width="20" height="20" viewBox="0 0 20 20" fill="none" xmlns="http://www.w3.org/2000/svg" xmlns:xlink="http://www.w3.org/1999/xlink">
<path d="M14.763,2.44C15.326,1.882 15.326,0.976 14.763,0.418C14.201,-0.139 13.288,-0.139 12.726,0.418L6.549,6.55L3.967,3.989C3.405,3.431 2.492,3.431 1.93,3.989C1.367,4.546 1.367,5.452 1.93,6.01L5.528,9.581C6.091,10.138 7.004,10.138 7.566,9.581L14.763,2.44ZM19.082,8.152C19.644,7.595 19.644,6.689 19.082,6.131C18.52,5.573 17.606,5.573 17.044,6.131L6.549,16.547L1.808,11.848C1.246,11.29 0.333,11.29 -0.23,11.848C-0.792,12.405 -0.792,13.311 -0.23,13.869L5.528,19.582C6.091,20.139 7.004,20.139 7.566,19.582L19.082,8.157L19.082,8.152Z" fill="#09C4FF"/>
</svg>
